<svg id="Ñëîé_1" data-name="Ñëîé 1" xmlns="http://www.w3.org/2000/svg" viewBox="0 0 319.54 350.97"><defs><style>.cls-1{fill:#5793ce;}.cls-2{fill:#396caa;}.cls-3,.cls-8{fill:#d4ecff;}.cls-4{fill:#b2d3ea;}.cls-5{fill:#fafdff;}.cls-6{fill:#173d7a;}.cls-7{fill:#fff;}.cls-8{opacity:0.4;}.cls-9{fill:#274f89;}</style></defs><title>875 [Converted]</title><path class="cls-1" d="M41.05,276.94a1,1,0,0,1-.46-.11L19,265.6a2.37,2.37,0,0,1-1.3-2.12,2.43,2.43,0,0,1,1.25-2.15l21.43-11.72a.42.42,0,0,0,0-.74L19.2,237.09a2.42,2.42,0,0,1-.07-4.19L48.92,215a7.22,7.22,0,0,1,7.27-.09l16.56,9.38a1,1,0,0,1,.37,1.36,1,1,0,0,1-1.36.38l-16.55-9.38a5.21,5.21,0,0,0-5.26.07L20.16,234.62a.43.43,0,0,0,0,.73l21.18,11.77a2.42,2.42,0,0,1,0,4.24L19.9,263.09a.38.38,0,0,0-.21.37.41.41,0,0,0,.22.37l21.6,11.22a1,1,0,0,1-.46,1.89Z" transform="translate(-17.69 -12.6)"/><rect class="cls-1" x="37.07" y="270.16" width="5.36" height="11.57" transform="translate(281.22 366.12) rotate(119.83)"/><path class="cls-1" d="M32.84,274.16a4.19,4.19,0,0,1,1.89-3.29c1-.6,1.89-.12,1.9,1.09a4.19,4.19,0,0,1-1.89,3.29C33.7,275.86,32.85,275.37,32.84,274.16Z" transform="translate(-17.69 -12.6)"/><rect class="cls-1" x="46.55" y="273.25" width="8.69" height="18.15" transform="translate(303.44 366.02) rotate(119.83)"/><path class="cls-2" d="M44.45,275.55l-3.39-1.95a6.94,6.94,0,0,0-2.67,4.65l3.4,1.95A6.92,6.92,0,0,0,44.45,275.55Z" transform="translate(-17.69 -12.6)"/><path class="cls-1" d="M40,279.6A6.78,6.78,0,0,1,43,274.27c1.69-1,3.07-.2,3.07,1.76a6.77,6.77,0,0,1-3,5.33C41.34,282.34,40,281.55,40,279.6Z" transform="translate(-17.69 -12.6)"/><ellipse class="cls-3" cx="36.9" cy="272.41" rx="1.26" ry="0.73" transform="translate(-18.51 -12.48) rotate(-0.17)"/><path class="cls-4" d="M108.93,204.16l-53-30.22c-1.94-1.12-1.7-3.07.54-4.37L87,152c2.24-1.29,5.62-1.43,7.56-.31l53,30.21c1.94,1.12,1.7,3.08-.54,4.37l-30.49,17.6A8.44,8.44,0,0,1,108.93,204.16Z" transform="translate(-17.69 -12.6)"/><path class="cls-2" d="M152.25,171.7h0V48L103.07,35.12,94,29.89c-2.08-1.2-5.71-1.05-8.11.34l-8.45,4.88-26.23,0L59,154.52a2.36,2.36,0,0,0,1.4,2.17l49.07,37c2.08,1.2,5.71,1.05,8.11-.33l32.71-18.89C151.66,173.7,152.32,172.67,152.25,171.7Z" transform="translate(-17.69 -12.6)"/><path class="cls-3" d="M90.25,29.09a9.38,9.38,0,0,0-4.35,1.14l-8.45,4.88-26.23,0v124a2.35,2.35,0,0,0,1.39,2.18l56.84,32.41a7.37,7.37,0,0,0,3.77.81l.58-124.82Z" transform="translate(-17.69 -12.6)"/><path class="cls-1" d="M110,194a9.22,9.22,0,0,0,6.48-.08V68.23H110Z" transform="translate(-17.69 -12.6)"/><path class="cls-3" d="M109.45,69.72,52.61,37.31c-2.08-1.2-1.82-3.3.58-4.68L85.9,13.74c2.4-1.38,6-1.53,8.11-.33l56.84,32.41c2.08,1.2,1.82,3.3-.58,4.68L117.56,69.39C115.16,70.77,111.53,70.92,109.45,69.72Z" transform="translate(-17.69 -12.6)"/><path class="cls-5" d="M150.27,48.2,117.56,67.09c-2.4,1.38-6,1.53-8.11.33L52.61,35a3.06,3.06,0,0,1-1-.92c-.71,1.15-.39,2.4,1,3.22l56.84,32.41c2.08,1.2,5.71,1,8.11-.33L150.27,50.5c1.87-1.07,2.43-2.58,1.62-3.76A4.41,4.41,0,0,1,150.27,48.2Z" transform="translate(-17.69 -12.6)"/><path class="cls-6" d="M111.06,56.59,73.22,34.65c-1-.56-.86-1.54.27-2.19l15.3-8.84a4.23,4.23,0,0,1,3.8-.16L130.44,45.4c1,.56.85,1.54-.28,2.19l-15.3,8.84A4.23,4.23,0,0,1,111.06,56.59Z" transform="translate(-17.69 -12.6)"/><path class="cls-3" d="M90.63,35.63l-2.19-1.26c-.14-.08-.12-.22,0-.31l2.12-1.22a.59.59,0,0,1,.53,0l2.19,1.27c.13.07.12.21,0,.3l-2.12,1.22A.56.56,0,0,1,90.63,35.63Z" transform="translate(-17.69 -12.6)"/><path class="cls-3" d="M98,39.85l-2.2-1.27c-.13-.08-.11-.21,0-.3l2.12-1.23a.63.63,0,0,1,.52,0l2.2,1.27c.13.08.11.21,0,.3l-2.12,1.22A.6.6,0,0,1,98,39.85Z" transform="translate(-17.69 -12.6)"/><path class="cls-3" d="M105.28,44.06l-2.19-1.27c-.13-.07-.12-.21,0-.3l2.12-1.22a.56.56,0,0,1,.52,0L108,42.51c.14.08.12.22,0,.31L105.81,44A.59.59,0,0,1,105.28,44.06Z" transform="translate(-17.69 -12.6)"/><path class="cls-3" d="M112.61,48.27,110.42,47c-.14-.08-.12-.22,0-.31l2.12-1.22a.59.59,0,0,1,.53,0l2.19,1.26c.13.08.12.22,0,.31l-2.12,1.22A.56.56,0,0,1,112.61,48.27Z" transform="translate(-17.69 -12.6)"/><path class="cls-1" d="M73.22,34.65l0,0,.23-.15,15.3-8.84a4.23,4.23,0,0,1,3.8-.16l37.8,21.92c.9-.65.94-1.52.05-2L92.59,23.46a4.23,4.23,0,0,0-3.8.16l-15.3,8.84C72.36,33.11,72.24,34.09,73.22,34.65Z" transform="translate(-17.69 -12.6)"/><path class="cls-6" d="M124,94.23l21.52-12.32a5.25,5.25,0,0,0,2.19-4.19V70c0-1.62-1-2.36-2.19-1.66L124,80.69a5.26,5.26,0,0,0-2.19,4.19v7.7C121.76,94.19,122.74,94.93,124,94.23Z" transform="translate(-17.69 -12.6)"/><path class="cls-7" d="M146.53,68.14a2.14,2.14,0,0,1,.55,1.6v7.7a5.23,5.23,0,0,1-2.19,4.18L123.37,93.94a1.55,1.55,0,0,1-1.06.24,1.3,1.3,0,0,0,1.64,0l21.52-12.32a5.25,5.25,0,0,0,2.19-4.19V70C147.66,68.93,147.2,68.25,146.53,68.14Z" transform="translate(-17.69 -12.6)"/><path class="cls-2" d="M130.42,85.87l2-1.14a1.14,1.14,0,0,0,.47-.91V81.71c0-.35-.21-.51-.47-.36l-2,1.14a1.15,1.15,0,0,0-.48.91v2.11C129.94,85.86,130.16,86,130.42,85.87Z" transform="translate(-17.69 -12.6)"/><path class="cls-7" d="M137,82.06l2-1.14a1.14,1.14,0,0,0,.47-.91V77.9c0-.35-.21-.51-.47-.36l-2,1.14a1.14,1.14,0,0,0-.47.91V81.7C136.55,82.05,136.76,82.22,137,82.06Z" transform="translate(-17.69 -12.6)"/><path class="cls-6" d="M124,149.84l21.52-12.32a5.25,5.25,0,0,0,2.19-4.19v-7.69c0-1.62-1-2.36-2.19-1.66L124,136.3a5.25,5.25,0,0,0-2.19,4.19v7.69C121.76,149.8,122.74,150.54,124,149.84Z" transform="translate(-17.69 -12.6)"/><path class="cls-7" d="M146.53,123.75a2.12,2.12,0,0,1,.55,1.6V133a5.25,5.25,0,0,1-2.19,4.19l-21.52,12.32a1.49,1.49,0,0,1-1.06.23,1.3,1.3,0,0,0,1.64.06l21.52-12.32a5.25,5.25,0,0,0,2.19-4.19v-7.69C147.66,124.54,147.2,123.86,146.53,123.75Z" transform="translate(-17.69 -12.6)"/><path class="cls-2" d="M130.42,141.48l2-1.14a1.14,1.14,0,0,0,.47-.91v-2.11c0-.35-.21-.51-.47-.36l-2,1.14a1.15,1.15,0,0,0-.48.91v2.11C129.94,141.47,130.16,141.63,130.42,141.48Z" transform="translate(-17.69 -12.6)"/><path class="cls-7" d="M137,137.67l2-1.14a1.14,1.14,0,0,0,.47-.91v-2.11c0-.35-.21-.51-.47-.36l-2,1.14a1.14,1.14,0,0,0-.47.91v2.11C136.55,137.66,136.76,137.82,137,137.67Z" transform="translate(-17.69 -12.6)"/><path class="cls-6" d="M124,177.64l21.52-12.32a5.25,5.25,0,0,0,2.19-4.19v-7.69c0-1.62-1-2.36-2.19-1.66L124,164.1a5.26,5.26,0,0,0-2.19,4.19V176C121.76,177.6,122.74,178.34,124,177.64Z" transform="translate(-17.69 -12.6)"/><path class="cls-7" d="M146.53,151.55a2.14,2.14,0,0,1,.55,1.6v7.7a5.23,5.23,0,0,1-2.19,4.18l-21.52,12.33a1.6,1.6,0,0,1-1.06.23,1.3,1.3,0,0,0,1.64,0l21.52-12.32a5.25,5.25,0,0,0,2.19-4.19v-7.69C147.66,152.34,147.2,151.66,146.53,151.55Z" transform="translate(-17.69 -12.6)"/><path class="cls-2" d="M130.42,169.28l2-1.14a1.14,1.14,0,0,0,.47-.91v-2.11c0-.35-.21-.51-.47-.36l-2,1.14a1.15,1.15,0,0,0-.48.91v2.11C129.94,169.27,130.16,169.44,130.42,169.28Z" transform="translate(-17.69 -12.6)"/><path class="cls-7" d="M137,165.47l2-1.14a1.14,1.14,0,0,0,.47-.91v-2.11c0-.35-.21-.51-.47-.36l-2,1.14a1.14,1.14,0,0,0-.47.91v2.11C136.55,165.46,136.76,165.63,137,165.47Z" transform="translate(-17.69 -12.6)"/><path class="cls-6" d="M124,122l21.52-12.32a5.26,5.26,0,0,0,2.19-4.19v-7.7c0-1.61-1-2.35-2.19-1.66L124,108.49a5.26,5.26,0,0,0-2.19,4.19v7.7C121.76,122,122.74,122.74,124,122Z" transform="translate(-17.69 -12.6)"/><path class="cls-7" d="M146.53,95.94a2.15,2.15,0,0,1,.55,1.6v7.7a5.26,5.26,0,0,1-2.19,4.19l-21.52,12.32a1.6,1.6,0,0,1-1.06.23A1.3,1.3,0,0,0,124,122l21.52-12.32a5.26,5.26,0,0,0,2.19-4.19v-7.7C147.66,96.74,147.2,96.06,146.53,95.94Z" transform="translate(-17.69 -12.6)"/><path class="cls-2" d="M130.42,113.68l2-1.14a1.15,1.15,0,0,0,.47-.92v-2.1c0-.36-.21-.52-.47-.37l-2,1.14a1.19,1.19,0,0,0-.48.92v2.11C129.94,113.67,130.16,113.83,130.42,113.68Z" transform="translate(-17.69 -12.6)"/><path class="cls-7" d="M137,109.87l2-1.14a1.16,1.16,0,0,0,.47-.92v-2.1c0-.36-.21-.52-.47-.37l-2,1.14a1.18,1.18,0,0,0-.47.92v2.11C136.55,109.86,136.76,110,137,109.87Z" transform="translate(-17.69 -12.6)"/><path class="cls-1" d="M105.31,86.36,55.67,57.69a4.81,4.81,0,0,1-2-3.84V44.38c0-1.48.9-2.16,2-1.52l49.64,28.66a4.85,4.85,0,0,1,2,3.85v9.47C107.32,86.32,106.42,87,105.31,86.36Z" transform="translate(-17.69 -12.6)"/><path class="cls-8" d="M103.89,83,57.09,56a2.46,2.46,0,0,1-1-2V47c0-.75.46-1.09,1-.77l46.8,27a2.45,2.45,0,0,1,1,2v7.12C104.91,83,104.45,83.36,103.89,83Z" transform="translate(-17.69 -12.6)"/><path class="cls-3" d="M66.85,58.05l-7-4a2.36,2.36,0,0,1-1-1.89h0c0-.73.44-1.07,1-.75l7,4a2.39,2.39,0,0,1,1,1.89h0C67.84,58,67.39,58.37,66.85,58.05Z" transform="translate(-17.69 -12.6)"/><ellipse class="cls-6" cx="71.65" cy="59.51" rx="0.93" ry="1.62" transform="translate(-37.84 31.21) rotate(-30)"/><path class="cls-6" d="M76.83,62.5c0,.73-.51,1-1.14.66a2.54,2.54,0,0,1-1.15-2c0-.73.52-1,1.15-.66A2.52,2.52,0,0,1,76.83,62.5Z" transform="translate(-17.69 -12.6)"/><path class="cls-3" d="M80.87,64.83c0,.73-.51,1-1.14.66a2.53,2.53,0,0,1-1.15-2c0-.73.52-1,1.15-.66A2.52,2.52,0,0,1,80.87,64.83Z" transform="translate(-17.69 -12.6)"/><path class="cls-6" d="M84.91,67.16c0,.73-.51,1-1.14.66a2.5,2.5,0,0,1-1.15-2c0-.73.51-1,1.15-.66A2.52,2.52,0,0,1,84.91,67.16Z" transform="translate(-17.69 -12.6)"/><path class="cls-6" d="M101.92,79.07l-2.35-1.35a1.55,1.55,0,0,1-.64-1.22V74c0-.47.29-.68.64-.48l2.35,1.36a1.53,1.53,0,0,1,.64,1.21v2.49C102.56,79.06,102.27,79.28,101.92,79.07Z" transform="translate(-17.69 -12.6)"/><path class="cls-1" d="M105.31,103.05,55.67,74.39a4.83,4.83,0,0,1-2-3.85V61.08c0-1.49.9-2.17,2-1.52l49.64,28.66a4.81,4.81,0,0,1,2,3.84v9.47C107.32,103,106.42,103.69,105.31,103.05Z" transform="translate(-17.69 -12.6)"/><path class="cls-8" d="M103.89,99.73l-46.8-27a2.45,2.45,0,0,1-1-1.95V63.65c0-.76.46-1.1,1-.78l46.8,27a2.46,2.46,0,0,1,1,2V99C104.91,99.71,104.45,100.06,103.89,99.73Z" transform="translate(-17.69 -12.6)"/><path class="cls-3" d="M66.85,74.75l-7-4a2.35,2.35,0,0,1-1-1.89h0c0-.73.44-1.07,1-.75l7,4a2.41,2.41,0,0,1,1,1.9h0C67.84,74.73,67.39,75.06,66.85,74.75Z" transform="translate(-17.69 -12.6)"/><path class="cls-7" d="M72.8,76.86c0,.73-.52,1-1.15.66a2.52,2.52,0,0,1-1.14-2c0-.73.51-1,1.14-.66A2.53,2.53,0,0,1,72.8,76.86Z" transform="translate(-17.69 -12.6)"/><path class="cls-6" d="M76.83,79.19c0,.73-.51,1-1.14.66a2.53,2.53,0,0,1-1.15-2c0-.73.52-1,1.15-.66A2.52,2.52,0,0,1,76.83,79.19Z" transform="translate(-17.69 -12.6)"/><path class="cls-3" d="M80.87,81.52c0,.73-.51,1-1.14.66a2.53,2.53,0,0,1-1.15-2c0-.73.52-1,1.15-.66A2.53,2.53,0,0,1,80.87,81.52Z" transform="translate(-17.69 -12.6)"/><ellipse class="cls-6" cx="83.77" cy="83.19" rx="0.93" ry="1.62" transform="translate(-48.06 40.44) rotate(-30)"/><path class="cls-6" d="M101.92,95.77l-2.35-1.36a1.53,1.53,0,0,1-.64-1.22V90.7c0-.46.29-.68.64-.48l2.35,1.36a1.53,1.53,0,0,1,.64,1.22v2.49C102.56,95.75,102.27,96,101.92,95.77Z" transform="translate(-17.69 -12.6)"/><path class="cls-1" d="M105.31,119.74,55.67,91.08a4.81,4.81,0,0,1-2-3.84V77.77c0-1.48.9-2.16,2-1.52l49.64,28.66a4.82,4.82,0,0,1,2,3.85v9.46C107.32,119.7,106.42,120.38,105.31,119.74Z" transform="translate(-17.69 -12.6)"/><path class="cls-8" d="M103.89,116.42l-46.8-27a2.46,2.46,0,0,1-1-2V80.34c0-.75.46-1.1,1-.77l46.8,27a2.46,2.46,0,0,1,1,2v7.12C104.91,116.4,104.45,116.75,103.89,116.42Z" transform="translate(-17.69 -12.6)"/><path class="cls-3" d="M66.85,91.44l-7-4a2.38,2.38,0,0,1-1-1.9h0c0-.73.44-1.06,1-.75l7,4a2.38,2.38,0,0,1,1,1.89h0C67.84,91.42,67.39,91.75,66.85,91.44Z" transform="translate(-17.69 -12.6)"/><path class="cls-7" d="M72.8,93.55c0,.73-.52,1-1.15.66a2.52,2.52,0,0,1-1.14-2c0-.73.51-1,1.14-.66A2.54,2.54,0,0,1,72.8,93.55Z" transform="translate(-17.69 -12.6)"/><path class="cls-6" d="M76.83,95.88c0,.73-.51,1-1.14.67a2.56,2.56,0,0,1-1.15-2c0-.73.52-1,1.15-.66A2.53,2.53,0,0,1,76.83,95.88Z" transform="translate(-17.69 -12.6)"/><path class="cls-3" d="M80.87,98.22c0,.73-.51,1-1.14.66a2.56,2.56,0,0,1-1.15-2c0-.73.52-1,1.15-.66A2.55,2.55,0,0,1,80.87,98.22Z" transform="translate(-17.69 -12.6)"/><path class="cls-6" d="M84.91,100.55c0,.73-.51,1-1.14.66a2.52,2.52,0,0,1-1.15-2c0-.73.51-1,1.15-.67A2.55,2.55,0,0,1,84.91,100.55Z" transform="translate(-17.69 -12.6)"/><path class="cls-6" d="M101.92,112.46l-2.35-1.36a1.51,1.51,0,0,1-.64-1.21V107.4c0-.47.29-.69.64-.48l2.35,1.35a1.55,1.55,0,0,1,.64,1.22V112C102.56,112.45,102.27,112.66,101.92,112.46Z" transform="translate(-17.69 -12.6)"/><path class="cls-1" d="M105.31,136.44,55.67,107.77a4.81,4.81,0,0,1-2-3.84V94.46c0-1.48.9-2.16,2-1.52l49.64,28.66a4.85,4.85,0,0,1,2,3.85v9.46C107.32,136.4,106.42,137.08,105.31,136.44Z" transform="translate(-17.69 -12.6)"/><path class="cls-8" d="M103.89,133.12l-46.8-27a2.46,2.46,0,0,1-1-1.95V97c0-.75.46-1.09,1-.77l46.8,27a2.45,2.45,0,0,1,1,2v7.11C104.91,133.1,104.45,133.44,103.89,133.12Z" transform="translate(-17.69 -12.6)"/><path class="cls-3" d="M66.85,108.13l-7-4a2.36,2.36,0,0,1-1-1.89h0c0-.73.44-1.07,1-.75l7,4a2.38,2.38,0,0,1,1,1.89h0C67.84,108.11,67.39,108.45,66.85,108.13Z" transform="translate(-17.69 -12.6)"/><path class="cls-6" d="M72.8,110.25c0,.73-.52,1-1.15.66a2.55,2.55,0,0,1-1.14-2c0-.73.51-1,1.14-.66A2.56,2.56,0,0,1,72.8,110.25Z" transform="translate(-17.69 -12.6)"/><ellipse class="cls-6" cx="75.69" cy="111.92" rx="0.93" ry="1.62" transform="translate(-63.51 40.25) rotate(-30)"/><path class="cls-3" d="M80.87,114.91c0,.73-.51,1-1.14.66a2.54,2.54,0,0,1-1.15-2c0-.73.52-1,1.15-.66A2.52,2.52,0,0,1,80.87,114.91Z" transform="translate(-17.69 -12.6)"/><path class="cls-6" d="M84.91,117.24c0,.73-.51,1-1.14.66a2.5,2.5,0,0,1-1.15-2c0-.73.51-1,1.15-.66A2.52,2.52,0,0,1,84.91,117.24Z" transform="translate(-17.69 -12.6)"/><path class="cls-3" d="M101.92,129.15l-2.35-1.35a1.55,1.55,0,0,1-.64-1.22v-2.49c0-.47.29-.68.64-.48l2.35,1.36a1.53,1.53,0,0,1,.64,1.21v2.49C102.56,129.14,102.27,129.36,101.92,129.15Z" transform="translate(-17.69 -12.6)"/><path class="cls-1" d="M105.31,153.13,55.67,124.47a4.85,4.85,0,0,1-2-3.85v-9.46c0-1.49.9-2.17,2-1.53l49.64,28.67a4.81,4.81,0,0,1,2,3.84v9.47C107.32,153.09,106.42,153.77,105.31,153.13Z" transform="translate(-17.69 -12.6)"/><path class="cls-8" d="M103.89,149.81l-46.8-27a2.45,2.45,0,0,1-1-2v-7.11c0-.76.46-1.1,1-.78l46.8,27a2.46,2.46,0,0,1,1,1.95V149C104.91,149.79,104.45,150.14,103.89,149.81Z" transform="translate(-17.69 -12.6)"/><path class="cls-3" d="M66.85,124.83l-7-4a2.35,2.35,0,0,1-1-1.89h0c0-.73.44-1.07,1-.75l7,4a2.41,2.41,0,0,1,1,1.9h0C67.84,124.81,67.39,125.14,66.85,124.83Z" transform="translate(-17.69 -12.6)"/><path class="cls-6" d="M72.8,126.94c0,.73-.52,1-1.15.66a2.52,2.52,0,0,1-1.14-2c0-.73.51-1,1.14-.66A2.53,2.53,0,0,1,72.8,126.94Z" transform="translate(-17.69 -12.6)"/><path class="cls-7" d="M76.83,129.27c0,.73-.51,1-1.14.66a2.53,2.53,0,0,1-1.15-2c0-.73.52-1,1.15-.66A2.52,2.52,0,0,1,76.83,129.27Z" transform="translate(-17.69 -12.6)"/><path class="cls-3" d="M80.87,131.6c0,.73-.51,1-1.14.66a2.53,2.53,0,0,1-1.15-2c0-.73.52-1,1.15-.66A2.52,2.52,0,0,1,80.87,131.6Z" transform="translate(-17.69 -12.6)"/><path class="cls-7" d="M84.91,133.93c0,.73-.51,1-1.14.66a2.5,2.5,0,0,1-1.15-2c0-.73.51-1,1.15-.66A2.53,2.53,0,0,1,84.91,133.93Z" transform="translate(-17.69 -12.6)"/><path class="cls-3" d="M101.92,145.85l-2.35-1.36a1.53,1.53,0,0,1-.64-1.22v-2.49c0-.46.29-.68.64-.48l2.35,1.36a1.53,1.53,0,0,1,.64,1.22v2.49C102.56,145.83,102.27,146.05,101.92,145.85Z" transform="translate(-17.69 -12.6)"/><path class="cls-1" d="M105.31,169.82,55.67,141.16a4.81,4.81,0,0,1-2-3.84v-9.47c0-1.48.9-2.16,2-1.52L105.31,155a4.81,4.81,0,0,1,2,3.84v9.47C107.32,169.78,106.42,170.46,105.31,169.82Z" transform="translate(-17.69 -12.6)"/><path class="cls-8" d="M103.89,166.5l-46.8-27a2.46,2.46,0,0,1-1-2v-7.12c0-.75.46-1.1,1-.77l46.8,27a2.46,2.46,0,0,1,1,2v7.12C104.91,166.48,104.45,166.83,103.89,166.5Z" transform="translate(-17.69 -12.6)"/><path class="cls-3" d="M66.85,141.52l-7-4a2.38,2.38,0,0,1-1-1.9h0c0-.73.44-1.06,1-.75l7,4a2.38,2.38,0,0,1,1,1.89h0C67.84,141.5,67.39,141.83,66.85,141.52Z" transform="translate(-17.69 -12.6)"/><ellipse class="cls-6" cx="71.65" cy="142.97" rx="0.93" ry="1.62" transform="translate(-79.58 42.39) rotate(-30)"/><path class="cls-6" d="M76.83,146c0,.73-.51,1-1.14.66a2.53,2.53,0,0,1-1.15-2c0-.73.52-1,1.15-.66A2.53,2.53,0,0,1,76.83,146Z" transform="translate(-17.69 -12.6)"/><path class="cls-3" d="M80.87,148.3c0,.73-.51,1-1.14.66a2.56,2.56,0,0,1-1.15-2c0-.73.52-1,1.15-.66A2.55,2.55,0,0,1,80.87,148.3Z" transform="translate(-17.69 -12.6)"/><path class="cls-6" d="M84.91,150.63c0,.73-.51,1-1.14.66a2.54,2.54,0,0,1-1.15-2c0-.73.51-1,1.15-.66A2.55,2.55,0,0,1,84.91,150.63Z" transform="translate(-17.69 -12.6)"/><path class="cls-6" d="M101.92,162.54l-2.35-1.36a1.53,1.53,0,0,1-.64-1.21v-2.49c0-.47.29-.69.64-.48l2.35,1.35a1.55,1.55,0,0,1,.64,1.22v2.49C102.56,162.53,102.27,162.74,101.92,162.54Z" transform="translate(-17.69 -12.6)"/><path class="cls-1" d="M105.31,186.52,55.67,157.85a4.81,4.81,0,0,1-2-3.84v-9.47c0-1.48.9-2.16,2-1.52l49.64,28.66a4.85,4.85,0,0,1,2,3.85V185C107.32,186.48,106.42,187.16,105.31,186.52Z" transform="translate(-17.69 -12.6)"/><path class="cls-8" d="M103.89,183.2l-46.8-27a2.46,2.46,0,0,1-1-2v-7.12c0-.75.46-1.1,1-.77l46.8,27a2.45,2.45,0,0,1,1,1.95v7.11C104.91,183.18,104.45,183.52,103.89,183.2Z" transform="translate(-17.69 -12.6)"/><path class="cls-3" d="M66.85,158.21l-7-4a2.36,2.36,0,0,1-1-1.89h0c0-.73.44-1.07,1-.75l7,4a2.38,2.38,0,0,1,1,1.89h0C67.84,158.19,67.39,158.53,66.85,158.21Z" transform="translate(-17.69 -12.6)"/><path class="cls-7" d="M74.07,161.23c0,1.38-1,1.94-2.16,1.25a4.8,4.8,0,0,1-2.16-3.75c0-1.38,1-1.93,2.16-1.25A4.8,4.8,0,0,1,74.07,161.23Z" transform="translate(-17.69 -12.6)"/><path class="cls-6" d="M82.44,166.12c0,.73-.52,1-1.15.66a2.52,2.52,0,0,1-1.14-2c0-.73.51-1,1.14-.66A2.54,2.54,0,0,1,82.44,166.12Z" transform="translate(-17.69 -12.6)"/><path class="cls-3" d="M86.47,168.45c0,.73-.51,1-1.14.67a2.56,2.56,0,0,1-1.15-2c0-.73.52-1,1.15-.66A2.53,2.53,0,0,1,86.47,168.45Z" transform="translate(-17.69 -12.6)"/><path class="cls-6" d="M90.51,170.79c0,.73-.51,1-1.14.66a2.54,2.54,0,0,1-1.15-2c0-.73.51-1,1.15-.66A2.55,2.55,0,0,1,90.51,170.79Z" transform="translate(-17.69 -12.6)"/><path class="cls-3" d="M101.92,179.23l-2.35-1.36a1.51,1.51,0,0,1-.64-1.21v-2.49c0-.47.29-.68.64-.48l2.35,1.36a1.51,1.51,0,0,1,.64,1.21v2.49C102.56,179.22,102.27,179.44,101.92,179.23Z" transform="translate(-17.69 -12.6)"/><path class="cls-1" d="M102,228.43a1,1,0,0,1-.5-.13L45.09,196.23a2.19,2.19,0,0,1,0-3.79l24.21-14.29a2.82,2.82,0,0,0,1.38-2.42V160a1,1,0,0,1,2,0v15.75a4.86,4.86,0,0,1-2.37,4.15L46.07,194.16a.19.19,0,0,0-.09.17.17.17,0,0,0,.1.16l56.43,32.07a1,1,0,0,1-.49,1.87Z" transform="translate(-17.69 -12.6)"/><rect class="cls-1" x="84.9" y="213.54" width="5.36" height="11.57" transform="translate(303.73 239.85) rotate(119.83)"/><path class="cls-1" d="M80.67,217.55a4.19,4.19,0,0,1,1.89-3.29c1-.61,1.89-.12,1.9,1.09a4.19,4.19,0,0,1-1.89,3.29C81.53,219.25,80.68,218.76,80.67,217.55Z" transform="translate(-17.69 -12.6)"/><rect class="cls-1" x="94.37" y="216.64" width="8.69" height="18.15" transform="translate(325.95 239.76) rotate(119.83)"/><path class="cls-2" d="M92.28,218.93,88.89,217a6.89,6.89,0,0,0-2.67,4.65l3.4,1.94A6.92,6.92,0,0,0,92.28,218.93Z" transform="translate(-17.69 -12.6)"/><path class="cls-1" d="M87.78,223a6.8,6.8,0,0,1,3.06-5.33c1.69-1,3.07-.19,3.07,1.77a6.79,6.79,0,0,1-3,5.33C89.16,225.73,87.79,224.94,87.78,223Z" transform="translate(-17.69 -12.6)"/><path class="cls-3" d="M83.84,216.31a.54.54,0,0,1,0-1,1.94,1.94,0,0,1,1.77,0c.5.28.5.74,0,1A2,2,0,0,1,83.84,216.31Z" transform="translate(-17.69 -12.6)"/><rect class="cls-1" x="72.7" y="220.92" width="5.36" height="11.57" transform="translate(291.85 261.49) rotate(119.83)"/><path class="cls-1" d="M68.47,224.93a4.17,4.17,0,0,1,1.88-3.29c1.05-.61,1.9-.12,1.9,1.09A4.17,4.17,0,0,1,70.37,226C69.32,226.62,68.47,226.13,68.47,224.93Z" transform="translate(-17.69 -12.6)"/><rect class="cls-1" x="82.17" y="224.02" width="8.69" height="18.15" transform="translate(314.07 261.39) rotate(119.83)"/><path class="cls-2" d="M80.08,226.31l-3.4-1.95A6.92,6.92,0,0,0,74,229l3.39,2A6.94,6.94,0,0,0,80.08,226.31Z" transform="translate(-17.69 -12.6)"/><path class="cls-1" d="M75.58,230.36a6.77,6.77,0,0,1,3-5.33c1.7-1,3.07-.2,3.08,1.76a6.76,6.76,0,0,1-3.06,5.33C77,233.11,75.58,232.32,75.58,230.36Z" transform="translate(-17.69 -12.6)"/><path class="cls-3" d="M71.63,223.68a.54.54,0,0,1,0-1,2,2,0,0,1,1.78,0c.49.28.49.74,0,1A2,2,0,0,1,71.63,223.68Z" transform="translate(-17.69 -12.6)"/><path class="cls-1" d="M274.1,138.61a.91.91,0,0,1-.23,0,1,1,0,0,1-.75-1.2L282.87,95a1,1,0,1,1,1.95.45l-9.75,42.34A1,1,0,0,1,274.1,138.61Z" transform="translate(-17.69 -12.6)"/><path class="cls-1" d="M261.13,135.62l-.22,0a1,1,0,0,1-.75-1.2l9.75-42.35a1,1,0,1,1,1.95.45l-9.75,42.35A1,1,0,0,1,261.13,135.62Z" transform="translate(-17.69 -12.6)"/><path class="cls-1" d="M248.17,132.64a.91.91,0,0,1-.23,0,1,1,0,0,1-.75-1.2L257,89.07a1,1,0,0,1,1.2-.75,1,1,0,0,1,.75,1.2l-9.76,42.34A1,1,0,0,1,248.17,132.64Z" transform="translate(-17.69 -12.6)"/><rect class="cls-1" x="251.61" y="99.66" width="5.36" height="11.57" transform="translate(13.09 -67.84) rotate(13.19)"/><path class="cls-1" d="M254.57,112.57a4.2,4.2,0,0,1-3.7-.86,1.16,1.16,0,0,1,.5-2.13,4.2,4.2,0,0,1,3.69.86A1.15,1.15,0,0,1,254.57,112.57Z" transform="translate(-17.69 -12.6)"/><rect class="cls-1" x="252.88" y="83.87" width="8.69" height="18.15" transform="translate(10.31 -68.84) rotate(13.19)"/><path class="cls-2" d="M252.57,101.05l-.9,3.81a7,7,0,0,0,5.22,1.23l.9-3.81A7,7,0,0,0,252.57,101.05Z" transform="translate(-17.69 -12.6)"/><path class="cls-1" d="M257.73,104.21a6.81,6.81,0,0,1-6-1.4c-1.42-1.35-1.06-2.89.81-3.46a6.8,6.8,0,0,1,6,1.4C260,102.09,259.61,103.64,257.73,104.21Z" transform="translate(-17.69 -12.6)"/><path class="cls-3" d="M252.47,109.9c-.13.55-.57.68-1,.29a1.94,1.94,0,0,1-.52-1.7.54.54,0,0,1,1-.3A2,2,0,0,1,252.47,109.9Z" transform="translate(-17.69 -12.6)"/><rect class="cls-1" x="263.63" y="106.82" width="5.36" height="11.57" transform="translate(15.04 -70.4) rotate(13.19)"/><path class="cls-1" d="M266.59,119.73a4.23,4.23,0,0,1-3.7-.86,1.16,1.16,0,0,1,.5-2.13,4.17,4.17,0,0,1,3.69.86A1.15,1.15,0,0,1,266.59,119.73Z" transform="translate(-17.69 -12.6)"/><rect class="cls-1" x="264.9" y="91.03" width="8.69" height="18.15" transform="translate(12.26 -71.4) rotate(13.19)"/><path class="cls-2" d="M264.59,108.21l-.9,3.81a7,7,0,0,0,5.22,1.23l.9-3.82A7,7,0,0,0,264.59,108.21Z" transform="translate(-17.69 -12.6)"/><path class="cls-1" d="M269.75,111.36a6.78,6.78,0,0,1-6-1.4c-1.42-1.34-1.06-2.88.81-3.45a6.77,6.77,0,0,1,6,1.4C272,109.25,271.63,110.8,269.75,111.36Z" transform="translate(-17.69 -12.6)"/><path class="cls-3" d="M264.49,117.05c-.13.56-.57.69-1,.3a2,2,0,0,1-.52-1.7c.13-.55.57-.69,1-.3A2,2,0,0,1,264.49,117.05Z" transform="translate(-17.69 -12.6)"/><rect class="cls-1" x="275.78" y="113.92" width="5.36" height="11.57" transform="translate(16.98 -72.98) rotate(13.19)"/><path class="cls-1" d="M278.74,126.83a4.17,4.17,0,0,1-3.69-.86,1.15,1.15,0,0,1,.5-2.13,4.2,4.2,0,0,1,3.69.86A1.15,1.15,0,0,1,278.74,126.83Z" transform="translate(-17.69 -12.6)"/><rect class="cls-1" x="277.05" y="98.13" width="8.69" height="18.15" transform="translate(14.21 -73.99) rotate(13.19)"/><path class="cls-2" d="M276.74,115.31l-.89,3.81a6.92,6.92,0,0,0,5.22,1.23l.89-3.81A6.93,6.93,0,0,0,276.74,115.31Z" transform="translate(-17.69 -12.6)"/><path class="cls-1" d="M281.91,118.47a6.81,6.81,0,0,1-6-1.4c-1.43-1.35-1.07-2.89.81-3.46a6.81,6.81,0,0,1,6,1.4C284.15,116.35,283.78,117.9,281.91,118.47Z" transform="translate(-17.69 -12.6)"/><path class="cls-3" d="M276.64,124.16c-.13.55-.57.68-1,.29a2,2,0,0,1-.51-1.7.54.54,0,0,1,1-.3A2,2,0,0,1,276.64,124.16Z" transform="translate(-17.69 -12.6)"/><path class="cls-4" d="M194.53,325.24,78.38,258.18c-3.28-1.89-2.87-5.21.92-7.4l79.09-45.64c3.79-2.19,9.53-2.43,12.82-.53l116.14,67.05c3.28,1.9,2.87,5.21-.92,7.4l-79.09,45.65C203.55,326.9,197.81,327.14,194.53,325.24Z" transform="translate(-17.69 -12.6)"/><path class="cls-6" d="M314.55,152.88,198.41,85.82a4.68,4.68,0,0,0-3.94-.48h0l-.21.08-.05,0L190,87l3.77,1.85-.06.2-18.91,86.11c-.95,4.31,1,9.35,4.23,11.24L292.4,251.87l-.4,4.81,4.58-1.78a6.45,6.45,0,0,0,3.29-4.67l18.92-86.12C319.73,159.81,317.84,154.77,314.55,152.88Z" transform="translate(-17.69 -12.6)"/><path class="cls-2" d="M314.55,152.88,198.41,85.82a4.68,4.68,0,0,0-3.94-.48h0l-.21.08-.05,0L190,87l3.77,1.85-.06.2-12.46,56.76,56.82,44.27,80.13-32.6A9,9,0,0,0,314.55,152.88Z" transform="translate(-17.69 -12.6)"/><path class="cls-9" d="M310.17,166.11l8.84-3.76a11,11,0,0,0-3.58-8.85l-14,5.88Z" transform="translate(-17.69 -12.6)"/><path class="cls-3" d="M288,256.22,171.82,189.17c-3.29-1.9-5.18-6.93-4.24-11.24L186.5,91.82c.95-4.31,4.38-6.27,7.67-4.37L310.31,154.5c3.28,1.9,5.18,6.93,4.23,11.24l-18.92,86.11C294.68,256.16,291.25,258.12,288,256.22Z" transform="translate(-17.69 -12.6)"/><path class="cls-7" d="M285.44,249.82l-109.23-63c-3-1.73-4.74-6.34-3.87-10.28l17.31-78.8c.87-3.94,4-5.73,7-4l109.23,63c3,1.73,4.74,6.34,3.88,10.28l-17.31,78.8C291.59,249.76,288.45,251.55,285.44,249.82Z" transform="translate(-17.69 -12.6)"/><path class="cls-7" d="M285.44,249.82l-109.23-63c-3-1.73-4.74-6.34-3.87-10.28l17.31-78.8c.87-3.94,4-5.73,7-4l109.23,63c3,1.73,4.74,6.34,3.88,10.28l-17.31,78.8C291.59,249.76,288.45,251.55,285.44,249.82Z" transform="translate(-17.69 -12.6)"/><path class="cls-6" d="M289.56,259.14l-15.87-2.09L171.21,197.88c-3.29-1.9-9-1.66-12.82.53L85.77,240.32l-9.6-1.27v5.45h0a3.73,3.73,0,0,0,2.2,3.36l116.15,67.06c3.28,1.9,9,1.66,12.81-.53l79.09-45.65c2.13-1.23,3.2-2.82,3.13-4.31h0Z" transform="translate(-17.69 -12.6)"/><path class="cls-2" d="M212.56,221.75l-7.28-4.2h-80L85.77,240.32l-9.6-1.27v5.45h0a3.73,3.73,0,0,0,2.2,3.36l116.15,67.06a12,12,0,0,0,6.61,1.24Z" transform="translate(-17.69 -12.6)"/><path class="cls-1" d="M80.43,239.61l-4.26-.56v5.45h0a3.73,3.73,0,0,0,2.2,3.36l2.05,1.19Z" transform="translate(-17.69 -12.6)"/><path class="cls-9" d="M195.7,315.46a14.88,14.88,0,0,0,10.89-.67V302.64H195.7Z" transform="translate(-17.69 -12.6)"/><path class="cls-3" d="M194.53,309.48,78.38,242.42c-3.28-1.89-2.87-5.21.92-7.4l79.09-45.64c3.79-2.19,9.53-2.43,12.82-.53L287.35,255.9c3.28,1.9,2.87,5.21-.92,7.4L207.34,309C203.55,311.14,197.81,311.38,194.53,309.48Z" transform="translate(-17.69 -12.6)"/><path class="cls-7" d="M286.43,261.31,207.34,307c-3.79,2.19-9.53,2.43-12.81.53L78.38,240.43a4.35,4.35,0,0,1-2-2.23c-.51,1.55.14,3.13,2,4.22l116.15,67.06c3.28,1.9,9,1.66,12.81-.53l79.09-45.65c2.55-1.47,3.56-3.45,3-5.16A6.13,6.13,0,0,1,286.43,261.31Z" transform="translate(-17.69 -12.6)"/><path class="cls-6" d="M127.78,220.22l-5.25-3c-.43-.24-.37-.67.11-.95l6.21-3.58a1.83,1.83,0,0,1,1.64-.07l5.26,3c.42.24.37.66-.12,1l-6.2,3.58A1.82,1.82,0,0,1,127.78,220.22Z" transform="translate(-17.69 -12.6)"/><path class="cls-6" d="M135.9,224.91l-5.26-3c-.42-.25-.37-.67.12-.95l6.2-3.59a1.82,1.82,0,0,1,1.65-.06l5.25,3c.43.24.37.67-.11.95l-6.21,3.58A1.83,1.83,0,0,1,135.9,224.91Z" transform="translate(-17.69 -12.6)"/><path class="cls-6" d="M144,229.6l-5.25-3c-.43-.24-.37-.67.12-.95l6.2-3.58a1.83,1.83,0,0,1,1.64-.07l5.26,3c.42.24.37.67-.12.95l-6.2,3.58A1.85,1.85,0,0,1,144,229.6Z" transform="translate(-17.69 -12.6)"/><path class="cls-6" d="M155.24,225.73l-5.26-3c-.42-.24-.37-.67.12-.95l5.21-3a1.77,1.77,0,0,1,1.64-.07l5.26,3c.42.25.37.67-.12,1l-5.21,3A1.83,1.83,0,0,1,155.24,225.73Z" transform="translate(-17.69 -12.6)"/><path class="cls-6" d="M163.35,230.41l-5.25-3c-.43-.25-.37-.67.11-.95l5.21-3a1.85,1.85,0,0,1,1.65-.07l5.25,3c.42.24.37.67-.12,1l-5.2,3A1.82,1.82,0,0,1,163.35,230.41Z" transform="translate(-17.69 -12.6)"/><path class="cls-6" d="M171.47,235.1l-5.26-3c-.42-.24-.37-.67.12-.95l5.21-3a1.8,1.8,0,0,1,1.64-.07l5.26,3c.42.25.37.67-.12,1l-5.21,3A1.83,1.83,0,0,1,171.47,235.1Z" transform="translate(-17.69 -12.6)"/><path class="cls-6" d="M179.58,239.78l-5.25-3c-.43-.25-.37-.67.11-.95l5.21-3a1.85,1.85,0,0,1,1.65-.07l5.25,3c.42.24.37.67-.12,1l-5.2,3A1.79,1.79,0,0,1,179.58,239.78Z" transform="translate(-17.69 -12.6)"/><path class="cls-6" d="M187.7,244.47l-5.26-3c-.42-.24-.37-.67.12-1l5.21-3a1.83,1.83,0,0,1,1.64-.07l5.26,3c.42.25.37.67-.12.95l-5.21,3A1.83,1.83,0,0,1,187.7,244.47Z" transform="translate(-17.69 -12.6)"/><path class="cls-6" d="M195.81,249.15l-5.25-3c-.43-.24-.37-.67.12-1l5.2-3a1.85,1.85,0,0,1,1.65-.07l5.25,3c.42.24.37.67-.12,1l-5.2,3A1.79,1.79,0,0,1,195.81,249.15Z" transform="translate(-17.69 -12.6)"/><path class="cls-6" d="M203.93,253.84l-5.26-3c-.42-.24-.37-.66.12-1l5.21-3a1.83,1.83,0,0,1,1.64-.07l5.26,3c.42.25.37.67-.12.95l-5.21,3A1.83,1.83,0,0,1,203.93,253.84Z" transform="translate(-17.69 -12.6)"/><path class="cls-6" d="M212,258.52l-5.25-3c-.42-.24-.37-.67.12-1l5.2-3a1.85,1.85,0,0,1,1.65-.07l5.25,3c.43.24.37.67-.11.95l-5.21,3A1.82,1.82,0,0,1,212,258.52Z" transform="translate(-17.69 -12.6)"/><path class="cls-6" d="M220.16,263.21l-5.26-3c-.42-.25-.37-.67.12-1l5.21-3a1.83,1.83,0,0,1,1.64-.07l5.26,3c.42.25.37.67-.12.95l-5.21,3A1.83,1.83,0,0,1,220.16,263.21Z" transform="translate(-17.69 -12.6)"/><path class="cls-6" d="M228.27,267.89l-5.25-3c-.42-.24-.37-.67.12-.95l5.2-3a1.82,1.82,0,0,1,1.65-.06l5.25,3c.43.24.37.67-.11.95l-5.21,3A1.82,1.82,0,0,1,228.27,267.89Z" transform="translate(-17.69 -12.6)"/><path class="cls-2" d="M167.19,223.51l-5.25-3c-.42-.24-.37-.66.12-.95l5.2-3a1.85,1.85,0,0,1,1.65-.07l5.25,3c.43.25.37.67-.11,1l-5.21,3A1.85,1.85,0,0,1,167.19,223.51Z" transform="translate(-17.69 -12.6)"/><path class="cls-2" d="M159,218.75l-5.26-3c-.42-.24-.37-.67.12-.95l5.21-3a1.83,1.83,0,0,1,1.64-.07l5.26,3c.42.24.37.67-.12,1l-5.21,3A1.77,1.77,0,0,1,159,218.75Z" transform="translate(-17.69 -12.6)"/><path class="cls-6" d="M150.71,214l-11.32-6.53c-.42-.25-.37-.67.12-1l5.2-3a1.85,1.85,0,0,1,1.65-.07L157.68,210c.42.24.37.66-.12.95l-5.21,3A1.83,1.83,0,0,1,150.71,214Z" transform="translate(-17.69 -12.6)"/><path class="cls-6" d="M156.47,208.2l-9.18-5.31c-.42-.24-.37-.66.12-.95l5.2-3a1.85,1.85,0,0,1,1.65-.07l9.18,5.3c.43.25.37.67-.11,1l-5.21,3A1.85,1.85,0,0,1,156.47,208.2Z" transform="translate(-17.69 -12.6)"/><path class="cls-2" d="M175.31,228.19l-5.26-3c-.42-.24-.37-.67.12-.95l5.21-3a1.83,1.83,0,0,1,1.64-.07l5.26,3c.42.24.37.67-.12,1l-5.21,3A1.8,1.8,0,0,1,175.31,228.19Z" transform="translate(-17.69 -12.6)"/><path class="cls-6" d="M183.42,232.88l-5.25-3c-.42-.24-.37-.66.12-1l5.2-3a1.85,1.85,0,0,1,1.65-.07l5.25,3c.43.25.37.67-.11,1l-5.21,3A1.85,1.85,0,0,1,183.42,232.88Z" transform="translate(-17.69 -12.6)"/><path class="cls-6" d="M191.54,237.56l-5.26-3c-.42-.24-.37-.67.12-.95l5.21-3a1.8,1.8,0,0,1,1.64-.06l5.26,3c.42.24.37.67-.12,1l-5.21,3A1.8,1.8,0,0,1,191.54,237.56Z" transform="translate(-17.69 -12.6)"/><path class="cls-6" d="M199.65,242.25l-5.25-3c-.42-.25-.37-.67.12-.95l5.2-3a1.85,1.85,0,0,1,1.65-.07l5.26,3c.42.25.36.67-.12,1l-5.21,3A1.85,1.85,0,0,1,199.65,242.25Z" transform="translate(-17.69 -12.6)"/><path class="cls-6" d="M207.77,246.93l-5.26-3c-.42-.24-.36-.67.12-1l5.21-3a1.82,1.82,0,0,1,1.65-.06l5.25,3c.42.24.37.67-.12,1l-5.2,3A1.82,1.82,0,0,1,207.77,246.93Z" transform="translate(-17.69 -12.6)"/><path class="cls-6" d="M215.88,251.62l-5.25-3c-.42-.25-.37-.67.12-1l5.2-3a1.85,1.85,0,0,1,1.65-.07l5.26,3c.42.24.36.66-.12,1l-5.21,3A1.85,1.85,0,0,1,215.88,251.62Z" transform="translate(-17.69 -12.6)"/><path class="cls-6" d="M224,256.31l-5.26-3c-.42-.24-.36-.67.12-1l5.21-3a1.82,1.82,0,0,1,1.65-.06l5.25,3c.42.24.37.67-.12.95l-5.2,3A1.85,1.85,0,0,1,224,256.31Z" transform="translate(-17.69 -12.6)"/><path class="cls-6" d="M232.11,261l-5.25-3c-.42-.25-.37-.67.12-.95l5.2-3a1.85,1.85,0,0,1,1.65-.07l5.26,3c.42.24.37.67-.12.95l-5.21,3A1.85,1.85,0,0,1,232.11,261Z" transform="translate(-17.69 -12.6)"/><path class="cls-6" d="M240.23,265.68l-5.25-3c-.43-.24-.37-.67.11-.95l5.21-3a1.79,1.79,0,0,1,1.65-.07l5.25,3c.42.24.37.67-.12,1l-5.2,3A1.85,1.85,0,0,1,240.23,265.68Z" transform="translate(-17.69 -12.6)"/><path class="cls-6" d="M254.66,274l-11.47-6.62c-.42-.25-.37-.67.12-.95l5.21-3a1.83,1.83,0,0,1,1.64-.07L261.63,270c.42.24.37.67-.12.95l-5.21,3A1.83,1.83,0,0,1,254.66,274Z" transform="translate(-17.69 -12.6)"/><path class="cls-6" d="M270.46,264.88l-9.68-5.58c-.42-.25-.37-.67.12-.95l5.2-3a1.85,1.85,0,0,1,1.65-.07l9.68,5.59c.42.24.37.67-.12.95l-5.21,3A1.8,1.8,0,0,1,270.46,264.88Z" transform="translate(-17.69 -12.6)"/><path class="cls-6" d="M189.52,227.28l-5.26-3c-.42-.24-.36-.67.12-1l5.21-3a1.79,1.79,0,0,1,1.65-.07l5.25,3c.42.25.37.67-.12.95l-5.2,3A1.85,1.85,0,0,1,189.52,227.28Z" transform="translate(-17.69 -12.6)"/><path class="cls-6" d="M181.2,222.47l-5.25-3c-.42-.24-.37-.67.12-.95l5.2-3a1.82,1.82,0,0,1,1.65-.06l5.25,3c.43.24.37.67-.11,1l-5.21,3A1.82,1.82,0,0,1,181.2,222.47Z" transform="translate(-17.69 -12.6)"/><path class="cls-2" d="M172.89,217.67l-5.26-3c-.42-.24-.37-.67.12-.95l5.21-3a1.83,1.83,0,0,1,1.64-.07l5.26,3c.42.24.37.67-.12.95l-5.21,3A1.77,1.77,0,0,1,172.89,217.67Z" transform="translate(-17.69 -12.6)"/><path class="cls-6" d="M164.57,212.87l-5.26-3c-.42-.25-.37-.67.12-1l5.21-3a1.83,1.83,0,0,1,1.64-.07l5.26,3c.42.24.37.67-.12,1l-5.21,3A1.83,1.83,0,0,1,164.57,212.87Z" transform="translate(-17.69 -12.6)"/><path class="cls-6" d="M197.63,232l-5.25-3c-.42-.25-.37-.67.12-1l5.21-3a1.83,1.83,0,0,1,1.64-.07l5.26,3c.42.24.37.67-.12.95l-5.21,3A1.79,1.79,0,0,1,197.63,232Z" transform="translate(-17.69 -12.6)"/><path class="cls-6" d="M205.75,236.65l-5.25-3c-.43-.24-.37-.67.11-1l5.21-3a1.85,1.85,0,0,1,1.65-.07l5.25,3c.42.25.37.67-.12.95l-5.2,3A1.85,1.85,0,0,1,205.75,236.65Z" transform="translate(-17.69 -12.6)"/><path class="cls-6" d="M213.87,241.33l-5.26-3c-.42-.24-.37-.67.12-1l5.21-3a1.83,1.83,0,0,1,1.64-.07l5.26,3c.42.24.37.67-.12.95l-5.21,3A1.77,1.77,0,0,1,213.87,241.33Z" transform="translate(-17.69 -12.6)"/><path class="cls-6" d="M222,246l-5.25-3c-.43-.24-.37-.66.11-.95l5.21-3a1.85,1.85,0,0,1,1.65-.07l5.25,3c.42.25.37.67-.12.95l-5.2,3A1.85,1.85,0,0,1,222,246Z" transform="translate(-17.69 -12.6)"/><path class="cls-6" d="M230.1,250.7l-5.26-3c-.42-.24-.37-.67.12-.95l5.21-3a1.83,1.83,0,0,1,1.64-.07l5.26,3c.42.24.37.67-.12.95l-5.21,3A1.8,1.8,0,0,1,230.1,250.7Z" transform="translate(-17.69 -12.6)"/><path class="cls-6" d="M238.21,255.39l-5.25-3c-.43-.24-.37-.66.11-.95l5.21-3a1.85,1.85,0,0,1,1.65-.07l5.25,3c.42.25.37.67-.12.95l-5.2,3A1.85,1.85,0,0,1,238.21,255.39Z" transform="translate(-17.69 -12.6)"/><path class="cls-6" d="M246.33,260.07l-5.26-3c-.42-.24-.37-.67.12-1l5.21-3A1.8,1.8,0,0,1,248,253l5.26,3c.42.24.37.67-.12.95L248,260A1.8,1.8,0,0,1,246.33,260.07Z" transform="translate(-17.69 -12.6)"/><path class="cls-6" d="M254.44,264.76l-5.25-3c-.43-.25-.37-.67.11-1l5.21-3a1.85,1.85,0,0,1,1.65-.07l5.25,3c.42.25.37.67-.12,1l-5.2,3A1.85,1.85,0,0,1,254.44,264.76Z" transform="translate(-17.69 -12.6)"/><path class="cls-6" d="M262.56,269.44l-5.26-3c-.42-.24-.37-.67.12-1l5.21-3a1.8,1.8,0,0,1,1.64-.06l5.26,3c.42.24.37.67-.12.95l-5.21,3A1.8,1.8,0,0,1,262.56,269.44Z" transform="translate(-17.69 -12.6)"/><path class="cls-6" d="M185.25,215.69l-5.26-3c-.42-.24-.37-.67.12-1l5.21-3a1.83,1.83,0,0,1,1.64-.07l5.26,3c.42.25.37.67-.12,1l-5.21,3A1.83,1.83,0,0,1,185.25,215.69Z" transform="translate(-17.69 -12.6)"/><path class="cls-6" d="M177.17,211l-5.25-3c-.43-.24-.37-.67.11-1l5.21-3a1.79,1.79,0,0,1,1.65-.07l5.25,3c.42.24.37.67-.12.95l-5.2,3A1.85,1.85,0,0,1,177.17,211Z" transform="translate(-17.69 -12.6)"/><path class="cls-6" d="M169.1,206.36l-5.26-3c-.42-.24-.37-.67.12-1l5.21-3a1.8,1.8,0,0,1,1.64-.06l5.26,3c.42.24.37.67-.12.95l-5.21,3A1.8,1.8,0,0,1,169.1,206.36Z" transform="translate(-17.69 -12.6)"/><path class="cls-6" d="M161,201.7l-5.25-3c-.42-.25-.37-.67.12-.95l5.2-3a1.85,1.85,0,0,1,1.65-.07l5.25,3c.42.24.37.67-.12.95l-5.2,3A1.82,1.82,0,0,1,161,201.7Z" transform="translate(-17.69 -12.6)"/><path class="cls-6" d="M169.33,196.91l-5.26-3c-.42-.24-.37-.67.12-1l1.72-1a1.85,1.85,0,0,1,1.65-.07l5.25,3c.42.24.37.66-.12.95l-1.72,1A1.83,1.83,0,0,1,169.33,196.91Z" transform="translate(-17.69 -12.6)"/><path class="cls-6" d="M179.86,203l-5.25-3c-.42-.25-.37-.67.12-1l1.72-1a1.8,1.8,0,0,1,1.64-.06l5.26,3c.42.24.37.67-.12,1l-1.72,1A1.82,1.82,0,0,1,179.86,203Z" transform="translate(-17.69 -12.6)"/><path class="cls-6" d="M187.9,207.63l-5.25-3c-.42-.24-.37-.67.12-.95l1.72-1a1.77,1.77,0,0,1,1.64-.07l5.26,3c.42.25.37.67-.12.95l-1.72,1A1.82,1.82,0,0,1,187.9,207.63Z" transform="translate(-17.69 -12.6)"/><path class="cls-6" d="M196,212.28l-5.26-3c-.42-.24-.37-.67.12-1l1.72-1a1.85,1.85,0,0,1,1.65-.07l5.25,3c.42.25.37.67-.12,1l-1.72,1A1.83,1.83,0,0,1,196,212.28Z" transform="translate(-17.69 -12.6)"/><path class="cls-6" d="M204,216.92l-5.26-3c-.42-.25-.37-.67.12-.95l1.72-1a1.85,1.85,0,0,1,1.65-.07l5.25,3c.42.24.37.67-.12,1l-1.72,1A1.83,1.83,0,0,1,204,216.92Z" transform="translate(-17.69 -12.6)"/><path class="cls-6" d="M248.88,242.84l-5.26-3c-.42-.24-.36-.66.12-1l1.72-1a1.85,1.85,0,0,1,1.65-.07l5.26,3c.42.24.36.67-.12.95l-1.72,1A1.85,1.85,0,0,1,248.88,242.84Z" transform="translate(-17.69 -12.6)"/><path class="cls-6" d="M256.92,247.48l-5.25-3c-.43-.25-.37-.67.11-.95l1.73-1a1.83,1.83,0,0,1,1.64-.07l5.26,3c.42.24.37.67-.12.95l-1.72,1A1.85,1.85,0,0,1,256.92,247.48Z" transform="translate(-17.69 -12.6)"/><path class="cls-6" d="M265,252.12l-5.25-3c-.42-.24-.37-.67.12-1l1.72-1a1.77,1.77,0,0,1,1.64-.07l5.26,3c.42.24.37.67-.12.95l-1.72,1A1.82,1.82,0,0,1,265,252.12Z" transform="translate(-17.69 -12.6)"/><path class="cls-6" d="M273,256.77l-5.25-3c-.42-.24-.37-.67.12-.95l1.72-1a1.83,1.83,0,0,1,1.64-.07l5.26,3c.42.25.37.67-.12.95l-1.72,1A1.85,1.85,0,0,1,273,256.77Z" transform="translate(-17.69 -12.6)"/><path class="cls-6" d="M193.36,220.37l-5.25-3c-.43-.24-.37-.67.12-1l5.2-3a1.85,1.85,0,0,1,1.65-.07l5.25,3c.42.24.37.67-.12,1l-5.2,3A1.79,1.79,0,0,1,193.36,220.37Z" transform="translate(-17.69 -12.6)"/><path class="cls-6" d="M201.48,225.06l-5.26-3c-.42-.24-.37-.66.12-1l5.21-3a1.83,1.83,0,0,1,1.64-.07l5.26,3c.42.25.37.67-.12.95l-5.21,3A1.83,1.83,0,0,1,201.48,225.06Z" transform="translate(-17.69 -12.6)"/><path class="cls-6" d="M209.59,229.74l-5.25-3c-.42-.24-.37-.67.12-1l5.2-3a1.82,1.82,0,0,1,1.65-.06l5.25,3c.43.24.37.67-.11.95l-5.21,3A1.82,1.82,0,0,1,209.59,229.74Z" transform="translate(-17.69 -12.6)"/><path class="cls-6" d="M217.71,234.43l-5.26-3c-.42-.25-.37-.67.12-1l5.21-3a1.83,1.83,0,0,1,1.64-.07l5.26,3c.42.25.37.67-.12.95l-5.21,3A1.83,1.83,0,0,1,217.71,234.43Z" transform="translate(-17.69 -12.6)"/><path class="cls-6" d="M225.82,239.11l-5.25-3c-.42-.24-.37-.67.12-1l5.2-3a1.82,1.82,0,0,1,1.65-.06l5.25,3c.43.24.37.67-.11.95l-5.21,3A1.82,1.82,0,0,1,225.82,239.11Z" transform="translate(-17.69 -12.6)"/><path class="cls-6" d="M233.94,243.8l-5.26-3c-.42-.25-.37-.67.12-1l5.21-3a1.83,1.83,0,0,1,1.64-.07l5.26,3c.42.24.37.66-.12.95l-5.21,3A1.83,1.83,0,0,1,233.94,243.8Z" transform="translate(-17.69 -12.6)"/><path class="cls-6" d="M242.05,248.49l-5.25-3c-.42-.24-.37-.67.12-.95l5.2-3a1.82,1.82,0,0,1,1.65-.06l5.25,3c.43.24.37.67-.11.95l-5.21,3A1.85,1.85,0,0,1,242.05,248.49Z" transform="translate(-17.69 -12.6)"/><path class="cls-6" d="M250.17,253.17l-5.26-3c-.42-.25-.37-.67.12-.95l5.21-3a1.83,1.83,0,0,1,1.64-.07l5.26,3c.42.24.37.66-.12.95l-5.21,3A1.83,1.83,0,0,1,250.17,253.17Z" transform="translate(-17.69 -12.6)"/><path class="cls-6" d="M258.28,257.86l-5.25-3c-.42-.24-.37-.67.12-.95l5.2-3a1.79,1.79,0,0,1,1.65-.07l5.25,3c.43.24.37.67-.11.95l-5.21,3A1.85,1.85,0,0,1,258.28,257.86Z" transform="translate(-17.69 -12.6)"/><path class="cls-6" d="M147,221,131.49,212c-.42-.25-.37-.67.12-1l5.2-3a1.85,1.85,0,0,1,1.65-.07l15.48,8.94c.42.24.37.67-.12.95l-5.21,3A1.8,1.8,0,0,1,147,221Z" transform="translate(-17.69 -12.6)"/><path class="cls-6" d="M246.66,278.51l-15.47-8.93c-.42-.25-.37-.67.12-.95l5.2-3a1.85,1.85,0,0,1,1.65-.07l15.47,8.94c.43.24.37.67-.11.95l-5.21,3A1.79,1.79,0,0,1,246.66,278.51Z" transform="translate(-17.69 -12.6)"/><path class="cls-6" d="M214.21,270.12l-5.26-3c-.42-.24-.36-.67.12-.95l6.21-3.58a1.83,1.83,0,0,1,1.64-.07l5.26,3c.42.25.37.67-.12,1l-6.2,3.59A1.82,1.82,0,0,1,214.21,270.12Z" transform="translate(-17.69 -12.6)"/><path class="cls-6" d="M155.28,236.1l-8.41-4.85c-.42-.25-.37-.67.12-.95l6.2-3.58a1.79,1.79,0,0,1,1.65-.07l8.4,4.85c.43.24.37.67-.11.95L156.92,236A1.83,1.83,0,0,1,155.28,236.1Z" transform="translate(-17.69 -12.6)"/><path class="cls-6" d="M206.39,265.61l-8.4-4.85c-.43-.25-.37-.67.11-.95l6.21-3.58a1.77,1.77,0,0,1,1.64-.07l8.41,4.85c.42.24.37.67-.12.95l-6.2,3.58A1.85,1.85,0,0,1,206.39,265.61Z" transform="translate(-17.69 -12.6)"/><path class="cls-6" d="M167,242.86l-8.4-4.85c-.42-.25-.37-.67.12-.95l6.2-3.58a1.79,1.79,0,0,1,1.65-.07l8.4,4.85c.42.24.37.67-.12,1l-6.2,3.58A1.85,1.85,0,0,1,167,242.86Z" transform="translate(-17.69 -12.6)"/><path class="cls-6" d="M166.6,233.44l36.54,21.1c.46.26.46.68,0,.94l-6.32,3.66a1.82,1.82,0,0,1-1.64,0L158.64,238Z" transform="translate(-17.69 -12.6)"/><path class="cls-6" d="M236.89,278.62l5.85,3.38c.35.2.31.55-.09.78l-2.54,1.46a1.5,1.5,0,0,1-1.35.06l-5.85-3.38c-.35-.2-.31-.55.09-.78l2.54-1.46A1.47,1.47,0,0,1,236.89,278.62Z" transform="translate(-17.69 -12.6)"/><path class="cls-6" d="M228.71,273.9l5.85,3.37c.35.2.3.55-.1.78l-2.53,1.47a1.5,1.5,0,0,1-1.35.05l-5.86-3.38c-.34-.19-.3-.54.1-.77l2.54-1.47A1.5,1.5,0,0,1,228.71,273.9Z" transform="translate(-17.69 -12.6)"/><path class="cls-6" d="M220.59,269.21l5.86,3.38c.34.2.3.55-.1.78l-2.54,1.46a1.5,1.5,0,0,1-1.35.06l-5.85-3.38c-.35-.2-.3-.55.1-.78l2.53-1.46A1.5,1.5,0,0,1,220.59,269.21Z" transform="translate(-17.69 -12.6)"/><path class="cls-6" d="M233.19,271.31l5.85,3.38c.35.2.31.55-.09.78l-2.54,1.46a1.5,1.5,0,0,1-1.35.06l-5.85-3.38c-.35-.2-.31-.55.09-.78l2.54-1.47A1.5,1.5,0,0,1,233.19,271.31Z" transform="translate(-17.69 -12.6)"/><path class="cls-3" d="M222.44,127.69l-7.77-4.49a2.23,2.23,0,0,1-.95-2.3h0a1.09,1.09,0,0,1,1.67-.79l7.76,4.48a2.22,2.22,0,0,1,.95,2.3h0A1.08,1.08,0,0,1,222.44,127.69Z" transform="translate(-17.69 -12.6)"/><path class="cls-3" d="M240.94,138.37l-11.46-6.61a2.22,2.22,0,0,1-.94-2.3h0a1.08,1.08,0,0,1,1.66-.8l11.45,6.62a2.22,2.22,0,0,1,.95,2.29h0A1.08,1.08,0,0,1,240.94,138.37Z" transform="translate(-17.69 -12.6)"/><path class="cls-3" d="M208.9,163.94l-7.77-4.49a2.2,2.2,0,0,1-.94-2.3h0a1.08,1.08,0,0,1,1.66-.79l7.76,4.48a2.22,2.22,0,0,1,.95,2.3h0A1.08,1.08,0,0,1,208.9,163.94Z" transform="translate(-17.69 -12.6)"/><path class="cls-3" d="M225.39,173.46l-11.45-6.61a2.22,2.22,0,0,1-.95-2.3h0a1.08,1.08,0,0,1,1.66-.8l11.45,6.61a2.22,2.22,0,0,1,1,2.3h0A1.08,1.08,0,0,1,225.39,173.46Z" transform="translate(-17.69 -12.6)"/><path class="cls-3" d="M199.53,121.81,194.68,119a2.21,2.21,0,0,1-1-2.3h0a1.08,1.08,0,0,1,1.66-.79l4.85,2.8a2.22,2.22,0,0,1,.95,2.3h0A1.08,1.08,0,0,1,199.53,121.81Z" transform="translate(-17.69 -12.6)"/><path class="cls-3" d="M214.48,137.78l-14.82-8.56a2.21,2.21,0,0,1-.95-2.3h0a1.08,1.08,0,0,1,1.66-.79l14.82,8.56a2.22,2.22,0,0,1,.95,2.3h0A1.08,1.08,0,0,1,214.48,137.78Z" transform="translate(-17.69 -12.6)"/><path class="cls-3" d="M201.52,145l-4.85-2.8a2.22,2.22,0,0,1-.95-2.3h0a1.08,1.08,0,0,1,1.66-.8l4.85,2.8a2.22,2.22,0,0,1,1,2.3h0A1.08,1.08,0,0,1,201.52,145Z" transform="translate(-17.69 -12.6)"/><path class="cls-3" d="M227.89,189.59l-13-7.48a2.22,2.22,0,0,1-1-2.3h0a1.08,1.08,0,0,1,1.66-.8l13,7.48a2.24,2.24,0,0,1,1,2.3h0A1.08,1.08,0,0,1,227.89,189.59Z" transform="translate(-17.69 -12.6)"/><path class="cls-3" d="M196.79,156.94l-3.12-1.79a2.22,2.22,0,0,1-.94-2.3h0a1.08,1.08,0,0,1,1.66-.8l3.11,1.8a2.22,2.22,0,0,1,.95,2.3h0A1.08,1.08,0,0,1,196.79,156.94Z" transform="translate(-17.69 -12.6)"/><path class="cls-3" d="M194.55,170.34l-3.87-2.23a2.24,2.24,0,0,1-1-2.3h0a1.09,1.09,0,0,1,1.67-.8l3.86,2.24a2.21,2.21,0,0,1,1,2.3h0A1.08,1.08,0,0,1,194.55,170.34Z" transform="translate(-17.69 -12.6)"/><path class="cls-3" d="M209.59,179l-10.19-5.89a2.22,2.22,0,0,1-1-2.3h0a1.08,1.08,0,0,1,1.66-.79l10.2,5.88a2.22,2.22,0,0,1,.94,2.3h0A1.08,1.08,0,0,1,209.59,179Z" transform="translate(-17.69 -12.6)"/><path class="cls-3" d="M196.52,178.82l-7.33-4.23a2.22,2.22,0,0,1-.95-2.3h0a1.08,1.08,0,0,1,1.66-.8l7.33,4.24a2.21,2.21,0,0,1,1,2.3h0A1.08,1.08,0,0,1,196.52,178.82Z" transform="translate(-17.69 -12.6)"/><path class="cls-3" d="M239,196l-4.7-2.72a2.22,2.22,0,0,1-1-2.3h0a1.08,1.08,0,0,1,1.66-.79l4.71,2.71a2.22,2.22,0,0,1,.94,2.3h0A1.08,1.08,0,0,1,239,196Z" transform="translate(-17.69 -12.6)"/><path class="cls-3" d="M219.56,155.4l-12.95-7.48a2.19,2.19,0,0,1-1-2.3h0a1.08,1.08,0,0,1,1.66-.79l13,7.48a2.22,2.22,0,0,1,.94,2.3h0A1.07,1.07,0,0,1,219.56,155.4Z" transform="translate(-17.69 -12.6)"/><path class="cls-3" d="M220.74,148.74l-22.58-13a2.23,2.23,0,0,1-.95-2.3h0a1.09,1.09,0,0,1,1.67-.79l22.58,13a2.24,2.24,0,0,1,.95,2.3h0A1.09,1.09,0,0,1,220.74,148.74Z" transform="translate(-17.69 -12.6)"/><path class="cls-3" d="M208.13,156.15l-13-7.48a2.24,2.24,0,0,1-.95-2.3h0a1.08,1.08,0,0,1,1.66-.8l13,7.48a2.22,2.22,0,0,1,.95,2.3h0A1.08,1.08,0,0,1,208.13,156.15Z" transform="translate(-17.69 -12.6)"/><path class="cls-3" d="M229.39,161.08l-4.71-2.72a2.23,2.23,0,0,1-1-2.3h0a1.09,1.09,0,0,1,1.67-.79l4.7,2.72a2.21,2.21,0,0,1,1,2.3h0A1.08,1.08,0,0,1,229.39,161.08Z" transform="translate(-17.69 -12.6)"/><path class="cls-3" d="M275.86,158.53,248,142.44a2.24,2.24,0,0,1-.95-2.3h0a1.09,1.09,0,0,1,1.67-.8l27.87,16.1a2.21,2.21,0,0,1,.95,2.3h0A1.08,1.08,0,0,1,275.86,158.53Z" transform="translate(-17.69 -12.6)"/><path class="cls-3" d="M207.75,170.62l-15.57-9a2.22,2.22,0,0,1-1-2.3h0a1.08,1.08,0,0,1,1.66-.8l15.58,9a2.23,2.23,0,0,1,.95,2.3h0A1.09,1.09,0,0,1,207.75,170.62Z" transform="translate(-17.69 -12.6)"/><path class="cls-3" d="M207.62,119.14l-11.45-6.62a2.2,2.2,0,0,1-.94-2.3h0a1.08,1.08,0,0,1,1.66-.79L208.34,116a2.24,2.24,0,0,1,.95,2.3h0A1.09,1.09,0,0,1,207.62,119.14Z" transform="translate(-17.69 -12.6)"/><path class="cls-3" d="M194.48,185l-13.27-7.66a2.22,2.22,0,0,1-.94-2.3h0a1.07,1.07,0,0,1,1.66-.79l13.26,7.65a2.22,2.22,0,0,1,.95,2.3h0A1.08,1.08,0,0,1,194.48,185Z" transform="translate(-17.69 -12.6)"/><path class="cls-3" d="M284.23,212.94l-7.77-4.49a2.23,2.23,0,0,1-.95-2.3h0a1.09,1.09,0,0,1,1.67-.79l7.76,4.48a2.22,2.22,0,0,1,.95,2.3h0A1.08,1.08,0,0,1,284.23,212.94Z" transform="translate(-17.69 -12.6)"/><path class="cls-3" d="M289.81,186.78,275,178.23a2.21,2.21,0,0,1-.95-2.3h0a1.08,1.08,0,0,1,1.66-.8l14.82,8.56a2.22,2.22,0,0,1,1,2.3h0A1.08,1.08,0,0,1,289.81,186.78Z" transform="translate(-17.69 -12.6)"/><path class="cls-3" d="M276.84,194l-4.85-2.8a2.22,2.22,0,0,1-.94-2.3h0a1.08,1.08,0,0,1,1.66-.8l4.85,2.8a2.24,2.24,0,0,1,.95,2.3h0A1.09,1.09,0,0,1,276.84,194Z" transform="translate(-17.69 -12.6)"/><path class="cls-3" d="M272.12,205.94,269,204.15a2.24,2.24,0,0,1-.95-2.3h0a1.09,1.09,0,0,1,1.67-.8l3.11,1.8a2.24,2.24,0,0,1,.95,2.3h0A1.07,1.07,0,0,1,272.12,205.94Z" transform="translate(-17.69 -12.6)"/><path class="cls-3" d="M294.89,204.41l-13-7.49a2.2,2.2,0,0,1-.94-2.3h0a1.08,1.08,0,0,1,1.66-.79l13,7.48a2.22,2.22,0,0,1,.95,2.3h0A1.08,1.08,0,0,1,294.89,204.41Z" transform="translate(-17.69 -12.6)"/><path class="cls-3" d="M296.07,197.74l-22.58-13a2.22,2.22,0,0,1-.95-2.3h0a1.08,1.08,0,0,1,1.66-.8l22.59,13a2.22,2.22,0,0,1,.94,2.3h0A1.08,1.08,0,0,1,296.07,197.74Z" transform="translate(-17.69 -12.6)"/><path class="cls-3" d="M283.45,205.15l-12.95-7.48a2.22,2.22,0,0,1-.95-2.3h0a1.08,1.08,0,0,1,1.66-.8l13,7.48a2.24,2.24,0,0,1,.95,2.3h0A1.09,1.09,0,0,1,283.45,205.15Z" transform="translate(-17.69 -12.6)"/><path class="cls-3" d="M283.08,219.62l-15.57-9a2.22,2.22,0,0,1-.95-2.3h0a1.08,1.08,0,0,1,1.66-.8l15.58,9a2.2,2.2,0,0,1,.94,2.3h0A1.08,1.08,0,0,1,283.08,219.62Z" transform="translate(-17.69 -12.6)"/><polygon class="cls-1" points="300.26 113.72 312.5 108.85 309.74 90.85 303.8 96.11 300.26 113.72"/><path class="cls-1" d="M236,42.37,265.6,30.56l-5.45,11.81S244.36,46,244.36,46Z" transform="translate(-17.69 -12.6)"/><path class="cls-1" d="M328.76,91.36A13.13,13.13,0,0,0,324,89.72c1.63-10.88-3.07-22.37-12.1-27.58a19.62,19.62,0,0,0-8.45-2.66c3.54-13.19-1.93-28.18-13.05-34.61a20.52,20.52,0,0,0-17.64-1.7h0l-.27.11-.42.17-9.27,3.65,3.7,3.18c-5,1.57-9.34,5.63-11.63,11.61-4.22,11,.11,24.47,9.66,30l56.81,47.88c7.18,4.15,11.54,2.42,14.7-5.87S335.93,95.51,328.76,91.36Z" transform="translate(-17.69 -12.6)"/><path class="cls-1" d="M257.42,37l31.87-12.73a20.37,20.37,0,0,0-16.56-1.12h0l-.27.11-.42.17-9.27,3.65,3.7,3.18A17.68,17.68,0,0,0,257.42,37Z" transform="translate(-17.69 -12.6)"/><path class="cls-1" d="M301.79,84.79l21-8.39a25.31,25.31,0,0,0-11.08-14.33A20.06,20.06,0,0,0,309.63,61l-29,11.58Z" transform="translate(-17.69 -12.6)"/><path class="cls-3" d="M269.24,28.42l9,5.21,15.67-6.24a26.12,26.12,0,0,0-3.57-2.52,22.71,22.71,0,0,0-6.13-2.43Z" transform="translate(-17.69 -12.6)"/><path class="cls-3" d="M321.44,72.9l-15.15,6,4.47,6.28,13-5.17A29.26,29.26,0,0,0,321.44,72.9Z" transform="translate(-17.69 -12.6)"/><path class="cls-3" d="M318.63,95.35a12.91,12.91,0,0,0-4.79-1.65c1.63-10.88-3.19-22.44-12.22-27.65a19,19,0,0,0-8.33-2.59c3.54-13.19-1.92-28.18-13.05-34.61-12-6.91-26-1.3-31.24,12.52-.18.47-.34,1-.5,1.42-9.13-4.06-19.23.52-23.19,10.89-4.22,11,.11,24.47,9.67,30l72.18,41.71c7.17,4.14,15.56.78,18.73-7.51S325.8,99.49,318.63,95.35Z" transform="translate(-17.69 -12.6)"/><path class="cls-7" d="M320.12,94.51a13,13,0,0,0-4.79-1.64C317,82,312.14,70.43,303.11,65.22a19,19,0,0,0-8.33-2.59c3.54-13.19-1.92-28.18-13-34.61a20.37,20.37,0,0,0-21.32.1,20.39,20.39,0,0,1,19.83.73c11.13,6.43,16.59,21.42,13.05,34.61a19,19,0,0,1,8.33,2.59c9,5.21,13.85,16.77,12.22,27.65a12.91,12.91,0,0,1,4.79,1.65c7.17,4.14,10.42,14.23,7.26,22.52a14.92,14.92,0,0,1-5.65,7.24,14.45,14.45,0,0,0,7.14-8.08C330.54,108.74,327.29,98.66,320.12,94.51Z" transform="translate(-17.69 -12.6)"/><path class="cls-7" d="M248.5,42.79c.14-.41.28-.83.44-1.24A16.09,16.09,0,0,0,234.61,43,16.11,16.11,0,0,1,248.5,42.79Z" transform="translate(-17.69 -12.6)"/><path class="cls-2" d="M240.34,45a9.52,9.52,0,0,0-3.8.77c-2.87,1.25-5.35,4.15-6.8,8-3.71,9.7.26,22,8.65,26.85l72.18,41.7a7.53,7.53,0,0,0,6.44.91c1.83-.73,3.45-2.65,4.45-5.27,2.67-7-.19-15.88-6.25-19.38a9.21,9.21,0,0,0-3.43-1.2l-2.93-.4.38-2.51c1.5-10-3.13-20.63-11-25.19a15.36,15.36,0,0,0-6.64-2.11l-3.63-.23.81-3c3.24-12.09-2-26.06-11.93-31.8-4.62-2.67-9.48-3.21-13.7-1.52s-7.65,5.56-9.69,10.89c-.16.42-.3.84-.44,1.25l-2,6-5.66-2.51A12.35,12.35,0,0,0,240.34,45Z" transform="translate(-17.69 -12.6)"/><polygon class="cls-1" points="258.03 78.74 260.52 77.74 258.58 76.25 258.03 78.74"/><polygon class="cls-1" points="256.79 51.8 259.2 50.82 259.03 51.83 256.79 51.8"/><polygon class="cls-1" points="265.84 72.44 268.36 71.43 264.68 67.73 265.84 72.44"/><path class="cls-1" d="M277.55,90.27l-9.63-5.56a1.55,1.55,0,0,1-.66-1.59l2.31-10.93L281,78.78l-2.31,10.93A.72.72,0,0,1,277.55,90.27Z" transform="translate(-17.69 -12.6)"/><path class="cls-1" d="M276.86,63.43l-13,6.56c-.55.28-.36,1.32.31,1.71l10.62,6.13L285.4,84c.67.39,1.2-.23.87-1l-7.71-18.53C278.22,63.61,277.42,63.15,276.86,63.43Z" transform="translate(-17.69 -12.6)"/><path class="cls-3" d="M275,91.29l-9.63-5.56a1.57,1.57,0,0,1-.66-1.59L267,73.21l11.4,6.58-2.31,10.94A.72.72,0,0,1,275,91.29Z" transform="translate(-17.69 -12.6)"/><path class="cls-3" d="M274.34,64.45l-13,6.56c-.55.28-.37,1.32.3,1.7l10.63,6.14L282.87,85c.67.39,1.21-.23.88-1L276,65.43C275.7,64.63,274.9,64.17,274.34,64.45Z" transform="translate(-17.69 -12.6)"/><path class="cls-4" d="M30.68,309.23,69.19,287.1c3-1.74,8.34-1.51,11.84.52l79,45.81c3.5,2,3.87,5.09.84,6.84l-38.51,22.12c-3,1.75-8.34,1.52-11.84-.51l-79-45.82C28,314,27.65,311,30.68,309.23Z" transform="translate(-17.69 -12.6)"/><path class="cls-2" d="M123.86,355.08l39.44-22.66a4.58,4.58,0,0,0,2.64-3.7h0l0-6.79-1.27,2.18a9.5,9.5,0,0,0-2.47-2L82.82,276.05c-4.5-2.61-11.32-2.91-15.22-.66L28.16,298a6.71,6.71,0,0,0-1.1.78l-1.51-1.94,0,6.38h0c-.06,1.76,1.2,3.63,3.71,5.09l79.41,46.07C113.14,357,120,357.32,123.86,355.08Z" transform="translate(-17.69 -12.6)"/><path class="cls-3" d="M28.19,293l39.44-22.66c3.9-2.24,10.72-1.95,15.22.66l79.41,46.08c4.5,2.61,5,6.54,1.07,8.78L123.9,348.52c-3.91,2.25-10.72,2-15.22-.66L29.27,301.79C24.77,299.18,24.28,295.24,28.19,293Z" transform="translate(-17.69 -12.6)"/><path class="cls-7" d="M163.33,325.86,123.9,348.52c-3.91,2.25-10.72,2-15.22-.66L29.27,301.79c-2.18-1.27-3.41-2.84-3.66-4.38-.32,1.88.92,4,3.66,5.54L108.68,349c4.5,2.61,11.31,2.91,15.22.66L163.33,327c2-1.16,2.85-2.77,2.59-4.41A4.78,4.78,0,0,1,163.33,325.86Z" transform="translate(-17.69 -12.6)"/><path class="cls-7" d="M30.68,293.91l38.51-22.12c3-1.75,8.34-1.52,11.84.51l79,45.82c3.5,2,3.87,5.09.84,6.83l-38.51,22.13c-3,1.74-8.34,1.51-11.84-.52l-79-45.81C28,298.72,27.65,295.66,30.68,293.91Z" transform="translate(-17.69 -12.6)"/><path class="cls-4" d="M92.73,302l-14.26-8.23c-.53-.31-.46-.84.15-1.19h0a2.31,2.31,0,0,1,2.06-.09l14.26,8.23c.53.31.46.84-.15,1.19h0A2.25,2.25,0,0,1,92.73,302Z" transform="translate(-17.69 -12.6)"/><path class="cls-4" d="M79.21,299.17l-5.08-2.93c-.53-.31-.46-.84.15-1.19h0a2.25,2.25,0,0,1,2.06-.09l5.08,2.94c.53.3.47.83-.14,1.19h0A2.3,2.3,0,0,1,79.21,299.17Z" transform="translate(-17.69 -12.6)"/><path class="cls-2" d="M87.75,304.1l-5.09-2.94c-.53-.3-.46-.83.15-1.19h0a2.28,2.28,0,0,1,2.06-.08L90,302.82c.53.31.46.84-.15,1.19h0A2.28,2.28,0,0,1,87.75,304.1Z" transform="translate(-17.69 -12.6)"/><path class="cls-4" d="M105,314.06l-13.8-8c-.53-.3-.47-.84.15-1.19h0a2.31,2.31,0,0,1,2.06-.09l13.81,8c.52.3.46.83-.15,1.19h0A2.3,2.3,0,0,1,105,314.06Z" transform="translate(-17.69 -12.6)"/><path class="cls-4" d="M87.6,309,69.79,298.74c-.53-.3-.47-.84.15-1.19h0a2.28,2.28,0,0,1,2.06-.08l17.81,10.28c.53.31.46.84-.15,1.19h0A2.31,2.31,0,0,1,87.6,309Z" transform="translate(-17.69 -12.6)"/><path class="cls-2" d="M109,326.41,65.45,301.25c-.53-.31-.47-.84.14-1.19h0a2.33,2.33,0,0,1,2.07-.09l43.57,25.16c.53.31.46.84-.15,1.19h0A2.25,2.25,0,0,1,109,326.41Z" transform="translate(-17.69 -12.6)"/><path class="cls-4" d="M121.74,318.71,96.66,304.23c-.53-.3-.46-.84.15-1.19h0a2.28,2.28,0,0,1,2.06-.08L124,317.43c.52.31.46.84-.15,1.19h0A2.28,2.28,0,0,1,121.74,318.71Z" transform="translate(-17.69 -12.6)"/><path class="cls-3" d="M91,342.35l-3.67-2.12a1.6,1.6,0,0,1-.66-1.26h0c0-.49.3-.71.66-.5L91,340.58a1.58,1.58,0,0,1,.66,1.27h0C91.68,342.33,91.39,342.56,91,342.35Z" transform="translate(-17.69 -12.6)"/><path class="cls-3" d="M96.79,345.69l-3.67-2.12a1.58,1.58,0,0,1-.66-1.26h0c0-.49.3-.71.66-.5l3.67,2.11a1.59,1.59,0,0,1,.66,1.27h0C97.45,345.67,97.16,345.9,96.79,345.69Z" transform="translate(-17.69 -12.6)"/></svg>