<svg xmlns="http://www.w3.org/2000/svg" viewBox="0 0 652.76 544.83"><defs><style>.cls-1{isolation:isolate;}.cls-2{fill:#ffa8a7;}.cls-3{fill:#e4f2f2;}.cls-4{fill:#2d2979;}.cls-5{fill:#7fa8e6;}.cls-6{fill:#6795d6;}.cls-7{fill:#f28f8f;}.cls-8{fill:#f5fbfb;}.cls-9{fill:#c8dbda;}.cls-10{fill:#3a2c6d;}.cls-11{fill:#6b99d1;opacity:0.15;mix-blend-mode:multiply;}.cls-12{fill:#c8e2ff;}.cls-13{fill:#a5cbfa;}.cls-14{fill:#031f60;}.cls-15{fill:#1e3779;}.cls-16{fill:#344593;}.cls-17{fill:#2b3d89;}.cls-18{fill:#dceeff;}.cls-19{opacity:0.4;}.cls-20{fill:#fafdff;}.cls-21{fill:#7aa3e5;}.cls-22{fill:#57f7e0;}.cls-23{fill:#6cffe6;}.cls-24{fill:#abffef;}.cls-25{fill:#fff;}</style></defs><title>power</title><g class="cls-1"><g id="Layer_1" data-name="Layer 1"><path class="cls-2" d="M162.93,221.78c-2.82-.65-5-2.27-9.07-2.87a30.11,30.11,0,0,1-8.93-2.36c-3.05-1.37-9.76-10.69-14.9-19.1-6.06-9.92-10.16-23.39-10.57-29.88-.69-11-.19-33.07-.78-40.7s-3.67-10-7.74-11.9c-4.78-2.23-8.61-1.23-9.1,9.8s-.73,32.29,2.45,47A102.32,102.32,0,0,0,117,202.86c5.4,8.93,11.11,14.92,18.37,22.42,2,2,2.94,4,6.26,8.38s8.19,8.55,12.42,10.28,6,1.69,6.75,1c.91-.88.42-2-1.42-3a27.68,27.68,0,0,1-8.16-5.67s3.92,2.41,6.39,3.65a27.56,27.56,0,0,0,7,2.4c2.33.42,4.83-2.07,3-3.13s-3.54-1.39-7.17-3.28a27.08,27.08,0,0,1-5.39-3.62,51.2,51.2,0,0,0,7.73,2.73c3.68.89,5.38.51,6.49.19s2.09-2.19-.36-3.21c-2.2-.91-5.37-1.13-9.29-3.53-2.85-1.74-4.62-3.36-4-3.56s2.24.94,5.14,1.15,5.62-1.26,5.61-2.83S165.75,222.43,162.93,221.78Z" transform="translate(-30.21 -65.23)"/><path class="cls-3" d="M104.35,114.18c-4.5,3.25-6.31,9.42-5,27.89s3.84,32.53,8.34,44.31,12.34,25.32,24.25,36.1c0,0,1.85-6.12,9.19-10.17,0,0-12.87-17.66-17.17-28.89s-4.52-29.26-4.56-39.44,1.12-19.5-3-25.24C112.48,113.22,106.06,113,104.35,114.18Z" transform="translate(-30.21 -65.23)"/><path class="cls-4" d="M97.83,388.17a43.75,43.75,0,0,1-.73,5.38c-.53,2.43-.9,6.42-.37,8.35s5.25,4.46,8.35,4.72,8,3.3,9.87,5.44c2.65,3.05,9.43,5.08,13.7,4.38s9.07-1.95,10-3.74-.59-3.66-9.91-9.64-15.55-9.58-18.67-15.39Z" transform="translate(-30.21 -65.23)"/><path class="cls-4" d="M59.21,402.12c-.93,2.43-2.73,3.79-2.23,10.18s-.07,8.92-.7,14.14,2,12.37,4.53,15.7,9.32,4,11.48-1.89,2.68-10.93,1.16-16.89.5-10.51-.49-14.5a34.06,34.06,0,0,0-2.42-6.74Z" transform="translate(-30.21 -65.23)"/><path class="cls-5" d="M59.21,237.64c.22,6.7,2.3,35.75,3.23,51.13S63.58,323,63.58,323s-2.65,11.2-4.37,24.38,0,54.73,0,54.73a10.48,10.48,0,0,0,11.33,0s7.08-33.26,10.37-48.25,3.84-23.63,5.55-32.92C88.51,309.7,93,257.26,93,257.26l1.78.09,4.73,59.21a66.78,66.78,0,0,0-3,13.44c-1.28,9.65,1.36,58.17,1.36,58.17s5.49,3.61,12.26-.5c0,0,11.82-64.26,11.82-74.05,0-6.47-1.11-91.76-1.11-91.76Z" transform="translate(-30.21 -65.23)"/><path class="cls-6" d="M93,257.26S103,253.2,108.42,249c0,0-5.41,5.66-8.07,7.33s-1.87,48-1.87,48l-3.75-47Z" transform="translate(-30.21 -65.23)"/><path class="cls-2" d="M75.26,108.32s.74,14.6.42,15.89-6.7,5.56-8.55,7.1,10.09,13.31,15.89,16,24.21-4.35,24.53-13.39-3.15-16.62-6-17S75.26,108.32,75.26,108.32Z" transform="translate(-30.21 -65.23)"/><path class="cls-7" d="M99.22,125c1.93-1.73-.29-5.56-1.62-8.22-6-1.82-22.34-8.48-22.34-8.48s.16,3.37.26,5.71h0a9.66,9.66,0,0,0,3.9,7.19A26.55,26.55,0,0,0,85.93,125C88.32,125.94,94.79,129,99.22,125Z" transform="translate(-30.21 -65.23)"/><path class="cls-8" d="M73.63,126.73S84.21,142.5,99,144c4.66-4.59,5.08-20.92-1.36-26.14,0,0,5.92-4.78,10-3.86a21,21,0,0,1,9.12,11.64,95.16,95.16,0,0,1,5.21,33.77c-.25,15.47,0,62.76,0,62.76s-2.08,10-15.44,17.44-23.28,8.17-32.34,6.06c-7.47-1.74-13.65-4.38-16.23-9.8.67-10.85,5.51-39.16,3.7-52.8s-4.69-23.83-5.43-34.85,1.45-10.81,7-14.74C70.62,128.17,73.63,126.73,73.63,126.73Z" transform="translate(-30.21 -65.23)"/><path class="cls-2" d="M66.15,258.12c-2.27-1.8-3.73-4.1-7.13-6.37-3-2-5.14-3-7-5.78-2-3-3.22-13.21-4.25-23-1.21-11.57,1.29-26.4,3.25-32.61,4-12.6,12.44-29.62,15.18-36.77s1-10.61-1.89-14.07c-3.37-4.06-9.25-3.82-14.43,5.92A204.59,204.59,0,0,0,33.92,188a102.17,102.17,0,0,0-1.84,33.54c1.05,10.39,3.63,18.25,7,28.13.91,2.7.92,4.92,2,10.26s3.73,11.24,6.81,14.62,4.72,4.1,5.67,3.78c1.21-.41,1.24-1.61,0-3.31a27.88,27.88,0,0,1-4.93-8.62s2.5,3.86,4.21,6a27.27,27.27,0,0,0,5.24,5.15c1.93,1.38,5.25.21,4.06-1.54s-2.6-2.77-5.08-6a27,27,0,0,1-3.3-5.58,50.56,50.56,0,0,0,5.81,5.77c2.94,2.39,4.64,2.77,5.77,3s2.83-1.08,1-3.05c-1.59-1.77-4.36-3.33-6.87-7.18-1.83-2.79-2.73-5-2.07-4.93s1.62,1.81,4.15,3.25,5.62,1.27,6.28-.15S68.42,259.91,66.15,258.12Z" transform="translate(-30.21 -65.23)"/><path class="cls-3" d="M60.18,135.5c-5.48.95-10.89,6.95-17.79,24.13s-10.77,30.93-11.88,43.49.82,29.91,7,43.56a19.14,19.14,0,0,1,13.13-6.31s-2.9-21.55-1.87-33.54,7-27.23,11.38-36.4,9.14-16.54,8.07-24.52S62.25,135.14,60.18,135.5Z" transform="translate(-30.21 -65.23)"/><path class="cls-3" d="M99,144a83.17,83.17,0,0,0,1.27-10.78c-.34-5.06-4.11-11.66-4.11-11.66v-4.09a9.71,9.71,0,0,1,5.41,3.52c2.48,3.06,6.28,9.63,5.34,16.06C106.89,137,105,140.78,99,144Z" transform="translate(-30.21 -65.23)"/><path class="cls-8" d="M99,144c1.07-2.08,3.12-9.1,4.12-10.14,2-.64,3.79,3.19,3.79,3.19s-.06,4.08-2.51,6.39A4.66,4.66,0,0,1,99,144Z" transform="translate(-30.21 -65.23)"/><path class="cls-9" d="M103.1,133.84c-1,1-3,8.06-4.12,10.14a33.79,33.79,0,0,1,2.24-3.37c1.1-1.41,2.42-4.1,5.67-3.58C106.89,137,105.05,133.2,103.1,133.84Z" transform="translate(-30.21 -65.23)"/><path class="cls-3" d="M75.77,121.64c.28,2.24,12.15,11.07,15,12.22S99,144,99,144c-4.23-.71-7.73,1-10.79,4.22,0,0-16.87-7.1-19.6-18.44,0,0,3.14-6.08,3.61-7.64s1.73-3.31,3.49-3.38Z" transform="translate(-30.21 -65.23)"/><path class="cls-8" d="M88.19,148.2s1.25-8.7,3.06-9.49S99,144,99,144A16.21,16.21,0,0,1,88.19,148.2Z" transform="translate(-30.21 -65.23)"/><path class="cls-9" d="M91.25,138.71c-1.81.79-3.06,9.49-3.06,9.49s4.73-4.35,6.19-4.78S99,144,99,144,93.06,137.92,91.25,138.71Z" transform="translate(-30.21 -65.23)"/><path class="cls-2" d="M108.27,86.58h0c-1.74-11.33-9.9-19.91-21.58-19.26a22.45,22.45,0,0,0-11.44,41s1.07,4.09,1.81,5c4.13,4.84,16.62,7.82,20.21,7.3,4.61-.65,7.11-2.58,9.3-7.61C110.45,104.07,109.23,92.18,108.27,86.58Z" transform="translate(-30.21 -65.23)"/><path class="cls-10" d="M106.57,77.45a22.23,22.23,0,0,0-23.33-9.67A22.47,22.47,0,0,0,69.1,77.5c-4.49,1.75-4.36,8.28-4.28,10.3.37,8.73,4,16.12,10.43,20.52-.24-.76-6.13-9.57-.07-11.51a7.28,7.28,0,0,1,1.26,4.61s3-.28,2.33-3.8c-.19-1-.36-1.89-.52-2.7A10.4,10.4,0,0,1,80,87.11a9.05,9.05,0,0,0,1.6-7.35,30.17,30.17,0,0,0,17.09,1.32C102.7,80.23,105.45,78.71,106.57,77.45Z" transform="translate(-30.21 -65.23)"/><path class="cls-10" d="M69.1,77.5s-1.4-4.45,4.33-8.8c6.83-5.18,16.43-4,26.54,0,6.47,2.57,16.5-.59,14.56,6.83-2.85,10.86-23.84,11.8-33,4.23C80.91,79.55,74.29,76.34,69.1,77.5Z" transform="translate(-30.21 -65.23)"/><path class="cls-2" d="M75.26,108.24s-.53,1.2-2.72,1.31c-4.1.21-8.89-7.41-5.59-12.58,2.06-3.23,6.72-2.09,8.23-.16Z" transform="translate(-30.21 -65.23)"/><path class="cls-11" d="M679.41,401.19l-220.06-127c-4.75-2.74-12.45-2.74-17.2,0L101.36,471c-4.75,2.75-4.75,7.19,0,9.94L321.42,608c4.76,2.74,12.45,2.74,17.21,0L679.41,411.12C684.16,408.37,684.16,403.93,679.41,401.19Z" transform="translate(-30.21 -65.23)"/><path class="cls-12" d="M683,376.67h0V357.23l-8.48-6.34L465.83,253.81c-18.16-10.47-25.87-10.47-30.62-7.73L148.26,411.89,97.8,427.15V446.6h0v0h0c0,1.79,1.2,3.57,3.55,4.93l220.06,127c4.76,2.74,12.45,2.74,17.21,0L679.41,381.72C681.82,380.33,683,378.49,683,376.67Z" transform="translate(-30.21 -65.23)"/><path class="cls-13" d="M97.8,427.15V446.6h0v0h0c0,1.79,1.2,3.57,3.55,4.93l220.06,127a17.63,17.63,0,0,0,8.61,2.06l-.24-119.53-123.63-82.8-57.9,33.55Z" transform="translate(-30.21 -65.23)"/><path class="cls-14" d="M661.87,357.73l-84.31-48.52a12.67,12.67,0,0,0-11.47,0l-2,1.14a12.67,12.67,0,0,1-11.47,0l-42.32-24.43c-3.17-1.83-3.17-4.79,0-6.62l2-1.14c3.16-1.83,3.16-4.8,0-6.63L449.58,235.2a12.67,12.67,0,0,0-11.47,0L118.59,419.89c-3.17,1.83-3.17,4.79,0,6.62L330.89,549a12.67,12.67,0,0,0,11.47,0L661.87,364.35C665,362.52,665,359.56,661.87,357.73Z" transform="translate(-30.21 -65.23)"/><polygon class="cls-15" points="541.61 240.67 637.54 295.72 631.07 307.69 541.61 256.2 541.61 240.67"/><polygon class="cls-15" points="413.63 182.19 413.63 166.66 487.82 209.61 474.37 217.38 413.63 182.19"/><path class="cls-16" d="M342.36,549,660.71,365l-83.15-47.85a12.67,12.67,0,0,0-11.47,0l-2,1.14a12.67,12.67,0,0,1-11.47,0l-42.32-24.43c-3.17-1.83-3.17-4.79,0-6.62l1.15-.67-1.15-.67c-3.17-1.83-3.17-4.79,0-6.62l.82-.48-61.56-35.66a12.67,12.67,0,0,0-11.47,0l-318.36,184L330.89,549A12.67,12.67,0,0,0,342.36,549Z" transform="translate(-30.21 -65.23)"/><path class="cls-17" d="M577.56,317.17a12.67,12.67,0,0,0-11.47,0l-2,1.14a12.67,12.67,0,0,1-11.47,0l-42.32-24.43c-3.17-1.83-3.17-4.79,0-6.62l1.15-.67-1.15-.67c-3.17-1.83-3.17-4.79,0-6.62l.82-.48-61.56-35.66a11.69,11.69,0,0,0-5.74-1.37s39.2,44.9,33.88,123.36c-3.33,49-93.22,158.59-128.48,179.91L660.71,365Z" transform="translate(-30.21 -65.23)"/><path class="cls-15" d="M508,282.61v8c0,1.34.89,2.42,2.37,3.31l42.32,24.43a11.71,11.71,0,0,0,6.06,1.37V309.46Z" transform="translate(-30.21 -65.23)"/><path class="cls-18" d="M679.41,352.34l-220.06-127c-4.75-2.75-12.45-2.75-17.2,0L101.36,422.19c-4.75,2.74-4.75,7.19,0,9.93l220.06,127c4.76,2.75,12.45,2.75,17.21,0L679.41,362.27C684.16,359.53,684.16,355.08,679.41,352.34Zm-17.54,12L342.36,549a12.67,12.67,0,0,1-11.47,0L118.59,426.51c-3.17-1.83-3.17-4.79,0-6.62L438.11,235.2a12.67,12.67,0,0,1,11.47,0l62.72,36.33c3.16,1.83,3.16,4.8,0,6.63l-2,1.14c-3.17,1.83-3.17,4.79,0,6.62l42.32,24.43a12.67,12.67,0,0,0,11.47,0l2-1.14a12.67,12.67,0,0,1,11.47,0l84.31,48.52C665,359.56,665,362.52,661.87,364.35Z" transform="translate(-30.21 -65.23)"/><g class="cls-19"><polygon class="cls-20" points="196.37 292.23 222.61 277.06 209.43 277.06 183.17 292.23 196.37 292.23"/><polygon class="cls-20" points="295.1 235.16 347.58 204.82 334.46 204.82 281.95 235.16 295.1 235.16"/><polygon class="cls-20" points="120.21 336.25 172.69 305.92 159.49 305.92 106.98 336.25 120.21 336.25"/><polygon class="cls-20" points="431.97 177.26 450.51 188.01 477.55 188.01 458.94 177.26 431.97 177.26"/><path class="cls-20" d="M536.88,270.06H509.75l2.55,1.47c3.16,1.83,3.16,4.8,0,6.63l-2,1.14c-3.17,1.83-3.17,4.79,0,6.62L535.4,300.4h54Z" transform="translate(-30.21 -65.23)"/><polygon class="cls-20" points="154 399.14 127.72 383.98 100.75 383.98 127.03 399.14 154 399.14"/><polygon class="cls-20" points="376.68 188.01 395.26 177.26 382.16 177.26 363.56 188.01 376.68 188.01"/><polygon class="cls-20" points="619.88 305.92 567.4 336.25 581.32 336.25 633.82 305.92 619.88 305.92"/><path class="cls-20" d="M679.41,352.34l-17.4-10h-27l26.37,15.17h21.52C683,355.61,681.85,353.75,679.41,352.34Z" transform="translate(-30.21 -65.23)"/><polygon class="cls-20" points="484.84 383.98 458.6 399.14 472.46 399.14 498.72 383.98 484.84 383.98"/><polygon class="cls-20" points="434.92 412.83 382.44 443.17 396.27 443.17 448.78 412.83 434.92 412.83"/><polygon class="cls-20" points="230.28 443.17 177.71 412.83 150.74 412.83 203.29 443.17 230.28 443.17"/><polygon class="cls-20" points="292.56 479.11 266.9 464.3 239.89 464.3 265.54 479.11 292.56 479.11"/><polygon class="cls-20" points="345.88 464.3 320.26 479.11 334.07 479.11 359.69 464.3 345.88 464.3"/></g><path class="cls-14" d="M530.49,282.07,551,293.92c1.76,1,2.07,2.48.69,3.28s-3.92.61-5.68-.41L525.51,285c-1.76-1-2.07-2.49-.7-3.28S528.73,281.05,530.49,282.07Z" transform="translate(-30.21 -65.23)"/><path class="cls-21" d="M195.07,497c0-2.22,4.68-1.33,10.45,2S216,506.8,216,509v4L195.07,501Z" transform="translate(-30.21 -65.23)"/><path class="cls-21" d="M222.42,515.51a2.94,2.94,0,0,0,1.32,2.29c.72.42,1.31.07,1.31-.77a2.91,2.91,0,0,0-1.32-2.28C223,514.32,222.42,514.67,222.42,515.51Z" transform="translate(-30.21 -65.23)"/><path class="cls-21" d="M228.93,519.27a2.94,2.94,0,0,0,1.32,2.29c.73.42,1.32.08,1.32-.77a2.91,2.91,0,0,0-1.32-2.28C229.52,518.09,228.93,518.43,228.93,519.27Z" transform="translate(-30.21 -65.23)"/><path class="cls-21" d="M235.44,523a2.92,2.92,0,0,0,1.32,2.29c.73.42,1.32.08,1.32-.77a2.91,2.91,0,0,0-1.32-2.28C236,521.85,235.44,522.19,235.44,523Z" transform="translate(-30.21 -65.23)"/><path class="cls-21" d="M242,526.79a2.92,2.92,0,0,0,1.32,2.29c.73.42,1.32.08,1.32-.76a2.91,2.91,0,0,0-1.32-2.29C242.55,525.61,242,526,242,526.79Z" transform="translate(-30.21 -65.23)"/><path class="cls-21" d="M248.47,530.55a3,3,0,0,0,1.32,2.29c.73.42,1.32.08,1.32-.76a2.92,2.92,0,0,0-1.32-2.29C249.07,529.37,248.47,529.71,248.47,530.55Z" transform="translate(-30.21 -65.23)"/><path class="cls-21" d="M255,534.31a2.91,2.91,0,0,0,1.32,2.29c.73.42,1.32.08,1.32-.76a2.92,2.92,0,0,0-1.32-2.29C255.58,533.13,255,533.47,255,534.31Z" transform="translate(-30.21 -65.23)"/><path class="cls-21" d="M261.51,538.08a2.91,2.91,0,0,0,1.32,2.28c.72.42,1.31.08,1.31-.76a2.92,2.92,0,0,0-1.32-2.29C262.09,536.89,261.5,537.23,261.51,538.08Z" transform="translate(-30.21 -65.23)"/><path class="cls-21" d="M222.24,508.72a3,3,0,0,0,1.32,2.28c.73.42,1.32.08,1.32-.76a2.92,2.92,0,0,0-1.32-2.29C222.83,507.53,222.24,507.87,222.24,508.72Z" transform="translate(-30.21 -65.23)"/><path class="cls-21" d="M228.76,512.48a2.91,2.91,0,0,0,1.32,2.28c.73.42,1.32.08,1.32-.76a2.92,2.92,0,0,0-1.32-2.29C229.35,511.29,228.76,511.63,228.76,512.48Z" transform="translate(-30.21 -65.23)"/><path class="cls-21" d="M235.28,516.24a2.91,2.91,0,0,0,1.32,2.28c.72.43,1.31.09,1.31-.76a2.94,2.94,0,0,0-1.31-2.29C235.87,515.05,235.28,515.4,235.28,516.24Z" transform="translate(-30.21 -65.23)"/><path class="cls-21" d="M241.79,520a2.94,2.94,0,0,0,1.32,2.29c.73.42,1.32.08,1.32-.77a2.91,2.91,0,0,0-1.32-2.28C242.38,518.81,241.79,519.16,241.79,520Z" transform="translate(-30.21 -65.23)"/><path class="cls-21" d="M248.31,523.76a2.92,2.92,0,0,0,1.32,2.29c.72.42,1.32.08,1.32-.76a2.93,2.93,0,0,0-1.32-2.29C248.9,522.58,248.31,522.92,248.31,523.76Z" transform="translate(-30.21 -65.23)"/><path class="cls-21" d="M254.82,527.52a2.92,2.92,0,0,0,1.32,2.29c.73.42,1.32.08,1.32-.76a2.91,2.91,0,0,0-1.32-2.29C255.41,526.34,254.82,526.68,254.82,527.52Z" transform="translate(-30.21 -65.23)"/><path class="cls-21" d="M261.33,531.28a3,3,0,0,0,1.33,2.29c.72.42,1.31.08,1.31-.76a2.91,2.91,0,0,0-1.32-2.29C261.92,530.1,261.33,530.44,261.33,531.28Z" transform="translate(-30.21 -65.23)"/><path class="cls-21" d="M145.79,471.25a2.91,2.91,0,0,0,1.32,2.28c.72.43,1.31.08,1.31-.76a2.94,2.94,0,0,0-1.32-2.29C146.38,470.06,145.79,470.41,145.79,471.25Z" transform="translate(-30.21 -65.23)"/><path class="cls-21" d="M152.3,475a2.94,2.94,0,0,0,1.32,2.29c.73.42,1.32.08,1.32-.77a2.91,2.91,0,0,0-1.32-2.28C152.89,473.82,152.3,474.17,152.3,475Z" transform="translate(-30.21 -65.23)"/><path class="cls-21" d="M158.82,478.77a2.94,2.94,0,0,0,1.31,2.29c.73.42,1.32.08,1.32-.77a2.91,2.91,0,0,0-1.32-2.28C159.41,477.59,158.82,477.93,158.82,478.77Z" transform="translate(-30.21 -65.23)"/><path class="cls-21" d="M165.33,482.53a2.92,2.92,0,0,0,1.32,2.29c.73.42,1.32.08,1.32-.76a2.91,2.91,0,0,0-1.32-2.29C165.92,481.35,165.33,481.69,165.33,482.53Z" transform="translate(-30.21 -65.23)"/><path class="cls-21" d="M171.85,486.29a2.92,2.92,0,0,0,1.32,2.29c.72.42,1.32.08,1.32-.76a2.93,2.93,0,0,0-1.32-2.29C172.44,485.11,171.85,485.45,171.85,486.29Z" transform="translate(-30.21 -65.23)"/><path class="cls-21" d="M178.36,490.05a2.91,2.91,0,0,0,1.32,2.29c.73.42,1.32.08,1.32-.76a2.92,2.92,0,0,0-1.32-2.29C179,488.87,178.36,489.21,178.36,490.05Z" transform="translate(-30.21 -65.23)"/><path class="cls-21" d="M184.88,493.82a2.91,2.91,0,0,0,1.32,2.28c.72.42,1.31.08,1.31-.76a2.92,2.92,0,0,0-1.32-2.29C185.47,492.63,184.87,493,184.88,493.82Z" transform="translate(-30.21 -65.23)"/><path class="cls-21" d="M145.62,464.45a2.91,2.91,0,0,0,1.32,2.29c.72.42,1.32.08,1.32-.76a3,3,0,0,0-1.32-2.29C146.21,463.27,145.62,463.61,145.62,464.45Z" transform="translate(-30.21 -65.23)"/><path class="cls-21" d="M152.13,468.22a2.93,2.93,0,0,0,1.32,2.28c.73.42,1.32.08,1.32-.76a2.92,2.92,0,0,0-1.32-2.29C152.72,467,152.13,467.37,152.13,468.22Z" transform="translate(-30.21 -65.23)"/><path class="cls-21" d="M158.65,472a2.91,2.91,0,0,0,1.32,2.28c.73.43,1.32.08,1.32-.76a2.92,2.92,0,0,0-1.32-2.29C159.24,470.79,158.65,471.13,158.65,472Z" transform="translate(-30.21 -65.23)"/><path class="cls-21" d="M165.16,475.74a2.94,2.94,0,0,0,1.32,2.29c.73.42,1.32.08,1.32-.77a2.91,2.91,0,0,0-1.32-2.28C165.75,474.56,165.16,474.9,165.16,475.74Z" transform="translate(-30.21 -65.23)"/><path class="cls-21" d="M171.68,479.5a2.94,2.94,0,0,0,1.32,2.29c.73.42,1.32.08,1.32-.76a2.91,2.91,0,0,0-1.32-2.29C172.27,478.32,171.68,478.66,171.68,479.5Z" transform="translate(-30.21 -65.23)"/><path class="cls-21" d="M178.19,483.26a2.92,2.92,0,0,0,1.32,2.29c.73.42,1.32.08,1.32-.76a2.91,2.91,0,0,0-1.32-2.29C178.78,482.08,178.19,482.42,178.19,483.26Z" transform="translate(-30.21 -65.23)"/><path class="cls-21" d="M184.71,487a2.92,2.92,0,0,0,1.32,2.29c.72.42,1.31.08,1.31-.76a2.94,2.94,0,0,0-1.31-2.29C185.3,485.84,184.71,486.18,184.71,487Z" transform="translate(-30.21 -65.23)"/><path class="cls-14" d="M554.12,298.48c-1.34.77-1.34,2,0,2.79a5.34,5.34,0,0,0,4.83,0c1.33-.77,1.33-2,0-2.79A5.34,5.34,0,0,0,554.12,298.48Z" transform="translate(-30.21 -65.23)"/><polygon class="cls-22" points="407.16 287.2 460.94 318.31 460.95 147.5 407.16 116.4 407.16 287.2"/><polygon class="cls-23" points="460.94 318.31 501.3 295.01 501.28 124.21 460.95 147.5 460.94 318.31"/><polygon class="cls-24" points="501.28 124.21 447.49 93.1 407.16 116.4 460.95 147.5 501.28 124.21"/><path class="cls-25" d="M491.15,383.55a24,24,0,0,1-.37-5.34v-5.34l0-10.68,0-21.35.07-42.7.07-42.7.19-42.71.18,42.71.06,42.7.06,42.7,0,21.35,0,10.68v5.34A24,24,0,0,1,491.15,383.55Z" transform="translate(-30.21 -65.23)"/><path class="cls-25" d="M531.5,189.44a2,2,0,0,1-1.08,1.05l-1.26.73-2.52,1.44-5,2.9-10.11,5.78-10.14,5.73-10.17,5.66,10-6,10-5.92L521.24,195l5-2.93,2.52-1.46,1.26-.74A2,2,0,0,1,531.5,189.44Z" transform="translate(-30.21 -65.23)"/><polygon class="cls-22" points="339.93 325.89 393.7 357.08 393.72 209.42 339.93 178.24 339.93 325.89"/><polygon class="cls-23" points="393.7 357.08 434.06 333.78 434.04 186.13 393.72 209.42 393.7 357.08"/><polygon class="cls-24" points="434.04 186.13 380.26 154.94 339.93 178.24 393.72 209.42 434.04 186.13"/><path class="cls-25" d="M423.91,422.32a18,18,0,0,1-.37-4.61v-4.62l0-9.23,0-18.46.07-36.91.07-36.92.19-36.91.18,36.91.06,36.92.06,36.91,0,18.46,0,9.23v4.62A18,18,0,0,1,423.91,422.32Z" transform="translate(-30.21 -65.23)"/><path class="cls-25" d="M464.26,251.36a2.06,2.06,0,0,1-1.08,1.06l-1.26.72-2.52,1.45-5,2.89-10.11,5.78L434.11,269l-10.18,5.66,10-6,10-5.91L454,256.89l5-2.93,2.51-1.46,1.26-.73A2,2,0,0,1,464.26,251.36Z" transform="translate(-30.21 -65.23)"/><polygon class="cls-22" points="272.69 364.84 326.46 395.9 326.48 287.21 272.69 256.15 272.69 364.84"/><polygon class="cls-23" points="326.46 395.9 366.82 372.6 366.8 263.92 326.48 287.21 326.46 395.9"/><polygon class="cls-24" points="366.8 263.92 313.02 232.85 272.69 256.15 326.48 287.21 366.8 263.92"/><path class="cls-25" d="M356.68,461.14a9.91,9.91,0,0,1-.38-3.4v-3.4l0-6.79,0-13.59.07-27.17.07-27.17.19-27.18.18,27.18.07,27.17L357,434l0,13.59v10.19A9.9,9.9,0,0,1,356.68,461.14Z" transform="translate(-30.21 -65.23)"/><path class="cls-25" d="M397,329.15a2,2,0,0,1-1.08,1.05l-1.26.73-2.52,1.44-5.05,2.9L377,341.05l-10.13,5.73-10.18,5.66,10-6,10-5.92,10.05-5.86,5-2.93,2.51-1.46,1.26-.74A2,2,0,0,1,397,329.15Z" transform="translate(-30.21 -65.23)"/><polygon class="cls-22" points="205.45 403.67 259.33 434.73 259.34 357.08 205.45 326.03 205.45 403.67"/><polygon class="cls-23" points="259.33 434.73 299.68 411.43 299.67 333.79 259.34 357.08 259.33 434.73"/><polygon class="cls-24" points="299.67 333.79 245.78 302.73 205.45 326.03 259.34 357.08 299.67 333.79"/><path class="cls-25" d="M289.54,500a5.17,5.17,0,0,1-.37-2.43v-7.27l0-9.71.05-19.41.11-19.41.19-19.41.19,19.41.1,19.41.05,19.41v17A5.17,5.17,0,0,1,289.54,500Z" transform="translate(-30.21 -65.23)"/><path class="cls-25" d="M329.88,399a2,2,0,0,1-1.07,1.06l-1.26.72L325,402.25l-5,2.9-10.11,5.77-10.13,5.74-10.18,5.66,10-6,10-5.91,10.06-5.87,5-2.93,2.52-1.46,1.26-.73A2,2,0,0,1,329.88,399Z" transform="translate(-30.21 -65.23)"/></g></g></svg>