<svg xmlns="http://www.w3.org/2000/svg" viewBox="0 0 424.71 643.84"><defs><style>.cls-1{isolation:isolate;}.cls-2{fill:#6b99d1;opacity:0.15;mix-blend-mode:multiply;}.cls-3{fill:#a5cbfa;}.cls-4{fill:#c8e2ff;}.cls-5{fill:#dceeff;}.cls-6{fill:#1e3779;}.cls-7{fill:#344593;}.cls-13,.cls-8{fill:none;stroke-miterlimit:10;}.cls-8{stroke:#6cffe6;}.cls-9{fill:#031f60;}.cls-10{fill:#41e5c9;}.cls-11{fill:#6cffe6;}.cls-12{fill:#abffef;}.cls-13{stroke:#344593;stroke-linecap:round;}.cls-14{fill:#2d2979;}.cls-15{fill:#6f89d1;}.cls-16{fill:#7fa8e6;}.cls-17{fill:#fff;}.cls-18{fill:#ffa8a7;}.cls-19{fill:#f28f8f;}.cls-20{fill:#3a2c6d;}.cls-21{fill:#f5fbfb;}.cls-22{fill:#e4f2f2;}</style></defs><title>professional</title><g class="cls-1"><g id="Layer_1" data-name="Layer 1"><path class="cls-2" d="M175.5,535.83,288.42,601a13.78,13.78,0,0,0,12.43,0L522.2,474.17c3.43-2,3.44-5.17,0-7.15L408.44,401.34a13.73,13.73,0,0,0-12.42,0L175.5,528.66C172.07,530.64,172.07,533.85,175.5,535.83Z" transform="translate(-157.85 -19.02)"/><path class="cls-3" d="M168,316.44v188.7c0,5.95,4.16,13.19,9.28,16.13l108.06,62.4s0,0,.07,0a19.53,19.53,0,0,0,9.25,2.19V437.74Z" transform="translate(-157.85 -19.02)"/><path class="cls-4" d="M294.63,585.89a19.38,19.38,0,0,0,9.14-2.12c.07,0,.11,0,.14-.07s0,0,0,0L484,479.73c5.12-3,9.28-10.18,9.28-16.13V339.88L294.63,437.74Z" transform="translate(-157.85 -19.02)"/><path class="cls-5" d="M172.5,306.28,357.7,199.36a14,14,0,0,1,16.58,2.55L490.77,329c4,4.38,3.1,10.33-2,13.3L303.53,449.18A14,14,0,0,1,287,446.63l-116.49-127C166.45,315.21,167.36,309.25,172.5,306.28Z" transform="translate(-157.85 -19.02)"/><path class="cls-6" d="M464,336.08s0,0,0,0l-159.6,92.15-.21.11a9.4,9.4,0,0,1-10.79-1.72l-.07-.07-96.52-105.3-.43-.47,0,0a5.42,5.42,0,0,1,1.68-8.32s0,0,.07,0l159.6-92.14.22-.11a9.38,9.38,0,0,1,10.78,1.72l.07.07,96.53,105.27c0,.07.1.1.14.17A5.51,5.51,0,0,1,464,336.08Z" transform="translate(-157.85 -19.02)"/><path class="cls-7" d="M196.29,320.8l96.77,105.53a9.32,9.32,0,0,0,11.53,1.77l160.35-92.57-101.83-111Z" transform="translate(-157.85 -19.02)"/><path class="cls-8" d="M242.67,342c11.52-6.65,13.52-3.19,25.05-9.84s9.52-10.12,21-16.78,13.53-3.18,25.05-9.84,9.53-10.12,21.05-16.77,13.53-3.19,25.06-9.85,9.52-10.12,21.05-16.77" transform="translate(-157.85 -19.02)"/><path class="cls-8" d="M260.86,365.11c9.88-5.7,11.88-2.24,21.76-7.94s7.88-9.17,17.76-14.87,11.87-2.24,21.75-7.94,7.88-9.17,17.76-14.87,11.88-2.24,21.76-7.95,7.88-9.17,17.76-14.87,11.88-2.24,21.76-7.95" transform="translate(-157.85 -19.02)"/><path class="cls-8" d="M279.06,388.23c13.83-8,15.83-4.53,29.66-12.51s11.83-11.45,25.66-19.43,15.83-4.52,29.66-12.51,11.83-11.45,25.66-19.43,15.83-4.53,29.67-12.51" transform="translate(-157.85 -19.02)"/><path class="cls-9" d="M363.66,219.31l-.54,5.16L196.36,320.78a5.42,5.42,0,0,1,1.68-8.32s0,0,.07,0l159.6-92.14.22-.11A9,9,0,0,1,363.66,219.31Z" transform="translate(-157.85 -19.02)"/><polygon class="cls-10" points="122.92 75.36 151.28 91.73 151.29 124.5 122.92 108.11 122.92 75.36"/><polygon class="cls-11" points="151.28 91.73 179.66 75.36 179.66 108.11 151.29 124.5 151.28 91.73"/><polygon class="cls-12" points="179.66 75.36 151.28 58.97 122.92 75.36 151.28 91.73 179.66 75.36"/><line class="cls-13" x1="151.28" y1="75.35" x2="83.17" y2="19.67"/><line class="cls-13" x1="137.1" y1="99.93" x2="57.67" y2="183.48"/><polygon class="cls-10" points="0 172.53 37.8 194.36 37.8 238 0 216.18 0 172.53"/><path class="cls-11" d="M195.64,213.38l37.8-21.82V235.2s-37.8,22.58-37.8,21.83Z" transform="translate(-157.85 -19.02)"/><polygon class="cls-12" points="75.59 172.53 37.8 150.71 0 172.53 37.8 194.36 75.59 172.53"/><polygon class="cls-10" points="49.14 13.1 71.84 26.21 71.84 52.42 49.14 39.31 49.14 13.1"/><path class="cls-11" d="M229.69,45.23l22.7-13.1V58.34s-22.7,13.56-22.7,13.1Z" transform="translate(-157.85 -19.02)"/><polygon class="cls-12" points="94.54 13.1 71.84 0 49.14 13.1 71.84 26.21 94.54 13.1"/><line class="cls-13" x1="38.65" y1="171.51" x2="60.48" y2="32.76"/><path class="cls-14" d="M441.73,564.28c-2.58,3.24-8.41,4.89-12.4,4-2.94-.67-4.87-1.19-7.1-1.9-2.91-.92-7.33-1-10.37-1.16-3.67-.21-6.56.06-10.19-.47a38.29,38.29,0,0,1-9.21-2.61c-3.88-1.65-10.5-9.56-5.65-12.56a3.15,3.15,0,0,1,1.21-.36c13-2,29.81-1.19,33.94-6.19l17.65-.88c-.52,0,2.87,16,3.15,17.25a7,7,0,0,1,.25,2.17A5.39,5.39,0,0,1,441.73,564.28Z" transform="translate(-157.85 -19.02)"/><path class="cls-15" d="M430.74,462.58l7.37-6.18s4.67,12.17,4.56,16.53-3.13,69.27-3.13,69.27-9.88,7.48-17.58.81c0,0-5.27-76.77-6.46-88.77l15.24,8.34" transform="translate(-157.85 -19.02)"/><path class="cls-14" d="M402.65,584.13c-2.86,3-8.81,4.1-12.7,2.83-2.87-.94-4.75-1.63-6.9-2.54-2.81-1.18-7.21-1.64-10.22-2.1-3.63-.56-6.54-.55-10.1-1.41a38.19,38.19,0,0,1-8.94-3.44c-3.71-2-9.58-10.48-4.47-13a3.23,3.23,0,0,1,1.24-.25c13.14-.76,29.79,1.55,34.36-3.06l17.66.74c-.53,0,1.39,16.16,1.55,17.47a6.65,6.65,0,0,1,.05,2.18A5.42,5.42,0,0,1,402.65,584.13Z" transform="translate(-157.85 -19.02)"/><path class="cls-16" d="M405.71,492.61c-.11,4.37-3.13,69.27-3.13,69.27s-10,5.93-17.66-.74c0,0-5.19-75.21-6.38-87.22" transform="translate(-157.85 -19.02)"/><path class="cls-2" d="M393.5,601.8l83.28-48.09c5.15-3,13.48-3,18.63,0l83.28,48.09c5.15,3,5.15,7.78,0,10.75l-83.28,48.08c-5.15,3-13.48,3-18.62,0L393.5,612.55C388.35,609.58,388.35,604.77,393.5,601.8Z" transform="translate(-157.85 -19.02)"/><path class="cls-5" d="M393.5,501.86l83.28-48.09c5.15-3,13.48-3,18.63,0l83.28,48.09c5.15,3,5.15,7.79,0,10.75L495.41,560.7c-5.15,3-13.48,3-18.62,0L393.5,512.61C388.35,509.64,388.35,504.83,393.5,501.86Z" transform="translate(-157.85 -19.02)"/><path class="cls-17" d="M486.1,452.55a17.93,17.93,0,0,1,8.81,2.09l83.28,48.09c2.17,1.25,3.36,2.85,3.36,4.51s-1.19,3.26-3.36,4.51l-83.28,48.08a19.61,19.61,0,0,1-17.62,0L394,511.75c-2.17-1.25-3.36-2.86-3.36-4.51s1.19-3.26,3.36-4.51l83.28-48.09a18,18,0,0,1,8.82-2.09m0-1a19.11,19.11,0,0,0-9.32,2.22L393.5,501.86c-5.15,3-5.15,7.78,0,10.75l83.29,48.09a20.63,20.63,0,0,0,18.62,0l83.28-48.09c5.15-3,5.15-7.78,0-10.75l-83.28-48.09a19.07,19.07,0,0,0-9.31-2.22Z" transform="translate(-157.85 -19.02)"/><path class="cls-3" d="M389.64,591.29c.05,2.22,1.49,4,3.86,5.38l83.29,48.09A19,19,0,0,0,486.1,647V562.92a18.91,18.91,0,0,1-9.31-2.22L393.5,512.61c-2.07-1.18-3.86-2.95-3.86-5.37Z" transform="translate(-157.85 -19.02)"/><path class="cls-4" d="M582.55,591.29c0,2.22-1.49,4-3.85,5.38l-83.29,48.09A19,19,0,0,1,486.1,647V562.92a18.93,18.93,0,0,0,9.31-2.22l83.29-48.09c2.07-1.18,3.85-2.95,3.85-5.37Z" transform="translate(-157.85 -19.02)"/><path class="cls-15" d="M438.65,437.52c8.65,3.15,67.05,25.06,67.05,25.06s-2.31,41.44-14.78,34.75l-60.18-34.75-15.24-8.34C414.16,440.72,429.16,434.06,438.65,437.52Z" transform="translate(-157.85 -19.02)"/><path class="cls-16" d="M378.54,473.92c-1.35-13.52,13.66-20.18,23.15-16.72,8.65,3.15,67.05,25.07,67.05,25.07l58-4.9c1.41,21.7-12.64,31-28.82,38.1S466.43,523.71,454,517l-60.17-34.74,7.37-6.19s4.67,12.17,4.56,16.53" transform="translate(-157.85 -19.02)"/><path class="cls-18" d="M463.65,335.88c1.25-12.34,9.6-22.07,22.26-22a24.38,24.38,0,0,1,24.28,24.5,24.13,24.13,0,0,1-9.65,19.19s-.33,1.59-.76,3.08c0,0,1.3,6.52,1.89,7.6.77,1.4,4.44,0,9.35-.68,3.37-.5,4.14,5.78,2,11.65-1.9,5.27-10.17,10.82-17.88,12.19S475,388,479.42,384.56s4.5-4.65,3.81-7-2-6.76-2-6.76a28.22,28.22,0,0,1-6.59.73c-5-.46-7.51-1.47-9.11-7.2C462.54,353.79,462.92,342,463.65,335.88Z" transform="translate(-157.85 -19.02)"/><path class="cls-19" d="M490.79,378.12s-4.12-.09-7.46-.14c0-.14-.06-.27-.1-.41-.7-2.33-2-6.76-2-6.76a28.22,28.22,0,0,1-6.59.73,13.41,13.41,0,0,1-5.11-1.22c3,.56,7.88-2,9-4.28s1.13-10,1.13-10a14.47,14.47,0,0,0,.95,2.62,2,2,0,0,0,2.12,1.06l4.75-.58,14.11-2.46c-.34.28-.66.59-1,.85,0,0-.33,1.59-.76,3.08,0,0,1.3,6.52,1.89,7.6.35.63,1.3.69,2.67.51l-1.86,2.43Z" transform="translate(-157.85 -19.02)"/><path class="cls-20" d="M461.32,312.35c7.71,2.41,36.32-8.59,41.47,8.42,0,0,5.66,2.07,7.4,10.38s1.74,14.46-3,22.78A124.31,124.31,0,0,0,501,366a19.19,19.19,0,0,1-8.09,3.68,10.18,10.18,0,0,1-11.81-7,35.26,35.26,0,0,1-1.46-6.7c1.1,1.75,4.42.79,6.19-2.79,1.57-3.17,2.17-7.24.15-10.32-2.59-3.95-7.4-2.84-8.33.24a22.39,22.39,0,0,0-.41,6.72,3.62,3.62,0,0,1-4-3.08,32.39,32.39,0,0,1-.39-7.62,7.3,7.3,0,0,0-2.09-5.75c-2.18-2-1.39-5.2-1.39-5.2A13.51,13.51,0,0,1,459,321.39C455.41,314.88,453.6,309.94,461.32,312.35Z" transform="translate(-157.85 -19.02)"/><path class="cls-21" d="M504.31,368.62c.53,1.8-1,4.72-7.36,8.12-8.61,4.6-13.74,4-13.74,4s-10.22,5.54-14.67,8.64c-5.59,3.91-8.07,15.22-8.82,34.31-.67,16.91-.87,43.72-.6,57.93a17.26,17.26,0,0,0,9.74,15.25,28.13,28.13,0,0,0,14.47,2.94c13.37-1.09,37.91-13.3,43.37-22.44-.15-19.36-1.78-31.13-1.1-42.71,1.2-20.42,5.66-36.6,0-53-4.9-14.28-10.59-15-16.06-14.19A33.89,33.89,0,0,0,504.31,368.62Z" transform="translate(-157.85 -19.02)"/><path class="cls-22" d="M501.11,366.51c2.2-.27,2.83.55,4.33,1.86,0,0,1.95,5.4-5.26,10.1s-18.43,3.07-18.43,3.07L479.14,383s1.24-7.39,3.36-7.87a29.1,29.1,0,0,0,12.79-2.82C501.76,369.17,501.11,366.51,501.11,366.51Z" transform="translate(-157.85 -19.02)"/><path class="cls-18" d="M372.79,386.44c1.32,2.84,3.38,4.95,4.93,9.1,1.36,3.65,2,5.13,4.46,7.79,2.69,2.88,10.47,7.34,21.77,13s20.19,5.46,26.78,2.95c14.42-5.5,22.33-18.23,31.56-25.63,6.47-5.18,12.82-2.83,13.91,1.9.85,3.69-2.34,14.05-13.44,24.77-8.6,8.3-23.32,17.46-35.65,17.79A60.72,60.72,0,0,1,403,433.08c-10.74-4.82-18.45-10-28-16-2.61-1.64-4.95-2.2-10.3-4.73s-10.91-6.74-13.69-10.82-3.15-6-2.57-6.93c.73-1.16,2-.89,3.49.83a29.87,29.87,0,0,0,7.85,7.35s-3.44-3.6-5.31-5.94a29.67,29.67,0,0,1-4.11-6.8c-1-2.38,1.09-5.59,2.63-3.9s2.27,3.43,5.09,6.85a29.34,29.34,0,0,0,5.05,4.89,56.49,56.49,0,0,1-4.64-7.57c-1.77-3.69-1.74-5.58-1.66-6.82s1.84-2.71,3.47-.35c1.47,2.12,2.42,5.43,5.85,9,2.48,2.62,4.61,4.13,4.67,3.41s-1.5-2.16-2.38-5.19.06-6.23,1.72-6.57S371.46,383.6,372.79,386.44Z" transform="translate(-157.85 -19.02)"/><path class="cls-22" d="M474.62,391.62c2.12,2,3.11,5.9,1.75,10.38s-6.38,11.82-10.85,17.32c-2.78,3.42-10.37,10.19-10.37,10.19s-11.17-7.64-14-17c0,0,14.3-13.72,18.1-17.27S469.25,386.47,474.62,391.62Z" transform="translate(-157.85 -19.02)"/></g></g></svg>